<?xml version="1.0" encoding="UTF-8"?>
<svg xmlns="http://www.w3.org/2000/svg" version="1.1" viewBox="0 0 1190.55 841.89">
  <defs>
    <style>
      .cls-1 {
        fill: #fff;
      }
    </style>
  </defs>
  <!-- Generator: Adobe Illustrator 28.7.10, SVG Export Plug-In . SVG Version: 1.2.0 Build 236)  -->
  <g>
    <g id="Layer_1">
      <path d="M363.21,437.08c0-33.72-.26-67.44.08-101.16.32-31.55,7.38-61.74,20.22-90.54,20.48-45.94,52.38-82.16,94.21-109.78,35.04-23.14,73.59-36.59,115.33-40.52,44.92-4.23,87.86,3.64,128.8,22.49,34.61,15.93,63.64,39.18,88.17,68.13,23.11,27.28,39.74,58.12,49.38,92.6,5.41,19.34,8.24,39.11,8.26,59.2.07,67.05.14,134.1-.05,201.14-.08,26.72-5.61,52.52-15.4,77.34-21.01,53.25-56.33,94.5-105.04,124.37-28.08,17.22-58.46,28.38-90.94,33.6-54.52,8.76-106.41.2-155.43-25.02-40.79-20.99-74.44-50.23-99.49-88.9-20.07-30.99-32.47-64.85-36.76-101.56-.82-6.99-1.23-14.07-1.26-21.12-.13-33.43-.06-66.85-.06-100.28ZM365.89,437c0,32.05-.15,64.1.09,96.15.07,9.87.7,19.79,1.9,29.58,3.95,32.27,15.09,62.11,31.84,89.84,23.3,38.57,55.31,68.16,94.54,89.95,51.42,28.56,106.29,38.45,164.36,28.41,47.82-8.27,89.75-29.09,125.85-61.5,22.69-20.37,41.03-44.15,54.92-71.33,15.88-31.07,25.32-63.9,25.47-98.92.27-65.86-.06-131.73.16-197.59.11-33.24-6.22-65.05-20.02-95.23-25.65-56.11-66.27-97.99-121.66-125.1-42.61-20.85-87.84-28.42-134.94-23.06-52.99,6.03-99.41,27.34-139.37,62.56-26.52,23.36-47.33,51.06-61.98,83.32-13.72,30.2-21.07,61.8-21.13,95.01-.06,32.64-.01,65.27-.01,97.91Z"/>
      <path d="M859.2,436.94c0,32.94.14,65.87-.04,98.81-.19,34.7-8.73,67.42-24.36,98.33-12.73,25.16-29.33,47.48-49.78,66.88-18.62,17.67-39.52,32.16-62.65,43.29-35.96,17.29-73.94,25.77-113.85,24.37-45.61-1.6-87.59-15.06-125.94-39.86-37.62-24.33-67.11-56.03-87.15-96.21-14.25-28.58-22.89-58.79-23.39-90.84-.55-35.57-.29-71.16-.3-106.74-.01-33.82-.16-67.64.2-101.45.25-23.5,5.03-46.3,12.92-68.4,14.28-40.01,37.9-73.63,69.91-101.45,31.08-27.01,66.56-45.53,106.74-54.59,65.23-14.72,126.54-4.2,183.25,30.86,35.44,21.91,63.51,51.48,84.21,87.81,20.28,35.59,30.39,73.83,30.22,114.82-.13,31.46-.03,62.93-.03,94.4h.03ZM374.52,436.95h.01c0,33.13-.04,66.26.02,99.38.02,13.56,1.5,26.98,4.31,40.25,9.32,43.9,29.81,81.88,61.15,113.87,31.57,32.23,68.98,54.95,112.64,66.9,53.01,14.51,105.1,11.19,155.73-9.87,50.07-20.83,89.16-54.78,116.81-101.59,20.2-34.2,31.04-71.13,31.14-110.95.15-65.57.14-131.14-.07-196.71-.03-10.15-.87-20.38-2.3-30.44-3.67-25.83-11.9-50.25-24.32-73.2-22.94-42.37-55.49-75.48-97.44-99.03-31.75-17.83-66.05-27.6-102.46-29.72-36.01-2.09-70.7,3.91-104.12,17.32-28.82,11.56-54.23,28.42-76.83,49.64-18.8,17.66-34.42,37.75-46.69,60.45-17.55,32.46-27.09,67.1-27.5,104.01-.36,33.22-.08,66.45-.08,99.68Z"/>
      <path class="cls-1" d="M465.62,562.83h-22.71c.55.69,1.14.92,1.76,1.07,3.91.93,4.98,1.98,5,6.01.08,15.48.09,30.97.02,46.45-.02,3.62-1.26,4.79-4.84,5.49-.65.13-1.28.38-1.92.58.04.15.09.3.13.45h22.44c-.47-.66-.99-.85-1.52-.95-4.27-.84-5.07-1.61-5.22-6.03-.16-5.09-.08-10.19-.1-15.29,0-2.41,0-4.82,0-7.32h31.25c0,8.1.06,16.01-.03,23.92-.03,2.75-1.71,4.24-4.44,4.59-.74.09-1.45.41-2.17.62.05.15.1.29.15.44h22.42q-6.91-2.86-6.93-10.72c-.01-8.43-.03-16.86-.01-25.28.01-5.78,0-11.57.16-17.34.11-3.63,1.29-4.82,4.81-5.59.74-.16,1.45-.41,2.18-.62-.06-.18-.12-.36-.18-.53h-22.52c.3.63.68.82,1.08.91,4.69.98,5.65,2.13,5.68,6.95.02,3.33-.02,6.66-.03,10,0,3.49,0,6.98,0,10.49h-31.42c0-6.16-.03-12.12,0-18.08.05-7.62.07-7.62,6.96-10.21Z"/>
      <path class="cls-1" d="M793.28,562.86h-41.24c6.48,2.58,6.5,2.61,6.5,9.95,0,14.02,0,28.03-.02,42.05,0,5.28-.59,5.97-5.66,7.16-.3.07-.56.33-1.58.95h44.84c.43-4.57.84-8.92,1.25-13.27-.28-.05-.57-.1-.85-.14-.36.87-.69,1.76-1.1,2.6-2.23,4.62-5.3,8.47-10.76,8.98-4.36.41-8.79.19-13.19.17-2.5-.01-3.92-1.55-3.96-3.87-.12-8-.05-16-.05-24.47,3.7.18,7.21.16,10.66.57,4.3.51,5.17,4.25,6.36,7.5v-17.63c-1.4,3.39-2.18,7.16-6.57,7.57-3.44.32-6.93.06-10.47.06v-26.83c4.16,0,8.15-.04,12.13,0,6.77.07,10.73,2.91,13.11,9.29.33.88.77,1.72,1.16,2.58l.85-.29c-.48-4.33-.96-8.65-1.44-12.93Z"/>
      <path class="cls-1" d="M656.05,562.74c6.81,3.07,7.45,4.03,7.47,11.79.01,4.7.04,9.41,0,14.11-.05,5.68.09,11.38-.35,17.03-.41,5.27-2.62,9.88-7.35,12.77-6.58,4.02-13.53,4.61-20.45,1.11-6.8-3.44-8.6-9.78-8.64-16.8-.06-9.9-.01-19.8,0-29.69q0-7.44,6.8-9.69c.06-.02.07-.16.23-.55h-23q7.15,3.5,7.12,11.63c-.02,9.7-.07,19.4,0,29.1.07,9.32,5.25,16.88,13.91,19.28,4.35,1.21,9.11,1.8,13.6,1.46,13.11-.99,20.26-9.16,20.28-22.33.02-9.8-.03-19.6.02-29.4.03-5.8,1.34-7.49,6.64-9.08.09-.03.1-.32.22-.73h-16.49Z"/>
      <path class="cls-1" d="M712.43,479.67l-.3.56c.26.11.52.24.79.32,6.19,1.78,7.11,2.97,7.14,9.42.03,5.68.08,11.37,0,17.05-.08,5.68.13,11.4-.54,17.01-1.13,9.47-9.08,15.3-19.66,15.02-9.4-.24-16.03-6.1-16.42-15.76-.5-12.23-.27-24.49-.13-36.74.05-4.06,1.27-5.07,5.18-5.88.55-.11,1.07-.42,2.31-.92h-23.85c.8.54,1.02.82,1.25.82,5.22.09,6.09,2.7,6.04,7.7-.09,10.09-.05,20.19-.07,30.29-.03,13.39,6.18,20.99,19.41,22.98,17.14,2.58,29.23-6.38,28.6-23.91-.34-9.4-.11-18.82-.04-28.22.05-5.92,1.04-7.19,6.34-8.95.18-.06.26-.43.45-.79h-16.52Z"/>
      <path class="cls-1" d="M693.52,606.11c-.2.06-.39.11-.59.17,0,2.76-.08,5.53.02,8.29.2,6.25.25,6.22,6.39,7.97,6.91,1.97,13.84,2.88,20.79.33,6.03-2.21,10.09-6.33,11.35-12.76,1.26-6.43-.71-11.85-5.85-15.91-2.29-1.81-4.86-3.27-7.37-4.78-4.11-2.46-8.47-4.55-12.38-7.29-4.84-3.4-6.16-8.91-3.87-13.72,1.97-4.15,7.6-6.57,12.83-5.54,5.81,1.14,9.02,5.1,11.13,10.26.55,1.34,1.09,2.69,1.64,4.03.58-3.88.63-7.56.52-11.23-.02-.57-.69-1.44-1.24-1.63-5.76-2.01-11.62-3.6-17.82-2.87-7.43.88-13.23,5.61-14.8,11.99-1.73,7.03.83,13.16,7.52,17.61,2.36,1.57,4.92,2.83,7.39,4.23,3.23,1.84,6.62,3.46,9.66,5.57,4.86,3.39,6.57,8.37,5,13.3-1.71,5.4-6.27,8.67-12.23,8.76-6.92.11-12.82-3.9-15.71-10.75-.84-1.99-1.57-4.02-2.35-6.03Z"/>
      <path class="cls-1" d="M769.06,481.04c0,5.89,0,11.45,0,17.02,0,11.56.03,23.12,0,34.68-.01,4.46-1.01,5.63-5.12,6.49-.78.16-1.55.37-2.32.56.03.16.06.33.09.49h23.6c-.23-.56-.48-.73-.75-.79-6.3-1.36-6.66-1.78-6.66-8.11-.01-15.57,0-31.15-.01-46.72,0-1.12,0-2.24,0-4.12,4.92.6,9.41.58,13.54,1.8,5.46,1.61,6.99,7.06,9.34,11.71.07-4.16-.34-8.18-.52-12.2-.09-1.97-.93-2.39-2.74-2.38-15.87.06-31.74.03-47.6.04-.94,0-1.88.14-2.99.22-.33,4.91-.65,9.58-.95,14.07,2.95-3.71,5.29-7.86,8.74-10.68,3.89-3.19,9.17-1.98,14.36-2.05Z"/>
      <path class="cls-1" d="M469.82,481.12c5.42-.2,10.23-.6,14.72,1.66,4.59,2.32,5.85,7.16,7.93,11.36.25-.09.49-.18.74-.27-.33-4.71-.67-9.41-1.01-14.21h-53.28c-.41,4.89-.8,9.57-1.19,14.25.33.29.66.58.99.87,2.86-12.36,11.13-15.08,22.06-13.4.06.67.17,1.33.17,1.99,0,16.37,0,32.74-.06,49.1-.02,5.11-.6,5.7-5.66,6.87-.51.12-.99.35-1.48.53l.08.42h23.36c-8.61-2.31-7.22-3.9-7.29-11.05-.13-14.31-.08-28.62-.1-42.93,0-1.64,0-3.28,0-5.2Z"/>
      <path class="cls-1" d="M604.7,648.85c0-.4-.02-.81-.03-1.21-1.01-.09-2.01-.26-3.02-.26-46.25,0-92.5,0-138.74,0-.39,0-.83-.12-1.16.03-.6.26-1.14.68-1.7,1.03.53.29,1.06.79,1.6.82,2.15.1,4.31.04,6.47.04,44.39-.01,88.77-.02,133.16-.05,1.14,0,2.29-.26,3.43-.39Z"/>
      <path class="cls-1" d="M504.89,447.77h0c13.91-.01,27.81-.01,41.72-.01.69,0,1.4.11,2.05-.06.44-.11.78-.61,1.17-.93-.37-.35-.69-.86-1.14-1.01-.53-.18-1.16-.07-1.75-.07-27.91,0-55.82.01-83.73.02-.78,0-1.59-.06-2.34.1-.34.07-.81.6-.82.93,0,.33.45.88.78.95.75.15,1.56.08,2.34.08,13.91,0,27.81,0,41.72,0Z"/>
      <path class="cls-1" d="M773.7,447.11c-.05-.39-.11-.77-.16-1.16-1.03-.06-2.06-.17-3.09-.18-7.35-.04-14.7-.08-22.04-.08-21.16,0-42.32,0-63.48.07-.84,0-1.68.74-2.52,1.13.74.29,1.47.82,2.21.82,28.9.04,57.8.03,86.71,0,.8,0,1.59-.39,2.39-.6Z"/>
      <path class="cls-1" d="M559.52,392.77c10.34,2.27,75.61,2.35,81.44.11-9.38-1.72-70.64-1.8-81.44-.11Z"/>
      <path class="cls-1" d="M607.22,399.99c6.81,2.34,66.69,2.61,79.93.36-13.67-1.71-73.06-1.98-79.93-.36Z"/>
      <path class="cls-1" d="M626.06,456.99c-2.22-2.44-2.35-17.57-.5-20.54h-4.74c.18,3.19.35,6.23.52,9.31h-10.4c.29-3.34.56-6.42.82-9.5h-5.47c2.86,3.14,1.36,6.88,1.54,10.32.18,3.45-.21,6.93-.35,10.34h4.1c-.17-3.34-.34-6.58-.5-9.76h10.42c-.35,3.49-.67,6.66-.99,9.82h5.54Z"/>
      <path class="cls-1" d="M749.58,393.95c-9.57-1.51-69.77-1.39-75.17.14,12.26,2.01,69.23,1.9,75.17-.14Z"/>
      <path class="cls-1" d="M559.33,716.32v-.02c9.79,0,19.58,0,29.37,0,.78,0,1.58.04,2.34-.12.35-.07.82-.58.83-.91,0-.31-.46-.85-.8-.92-.75-.16-1.56-.1-2.34-.1-19.68,0-39.35,0-59.03,0-.68,0-1.41-.1-2.04.09-.42.13-.71.7-1.05,1.08.34.29.64.75,1.01.82.76.14,1.56.09,2.34.09,9.79,0,19.58,0,29.37,0Z"/>
      <path class="cls-1" d="M660.65,452.87c-1.88,3.45-4.99,3.65-8.2,3.24-.8-.1-2.04-1.1-2.11-1.78-.26-2.38-.1-4.81-.1-7.93,2.31.72,4.1,1.28,5.77,1.8v-3.46c-1.76.55-3.53,1.1-5.58,1.75v-9.33c3.65-.29,7.01-.6,9.09,3.09-.18-1.24-.36-2.47-.56-3.87h-12.64c.87,6.92,1.07,13.75-.14,20.46h13.93c.2-1.46.38-2.71.55-3.95Z"/>
      <path class="cls-1" d="M487.35,396.65c19.7,1.57,39.36,1.87,59.02-.11-19.68-1.5-39.36-1.44-59.02.11Z"/>
      <path class="cls-1" d="M577.25,456.93h5.9c-1.95-1.93-2.69-12.73-1.49-19.65,3.28-.77,5.7.24,7.05,4.05.39-5.03.39-5.07-3.84-5.12-3.43-.04-6.86-.06-10.28.02-4.11.09-4.11.14-3.67,4.68,2.18-3.85,3.04-4.28,7.35-3.45,0,5.11.06,10.29-.05,15.46-.03,1.31-.61,2.6-.97,4.02Z"/>
      <path class="cls-1" d="M524.81,404.43c.03.27.06.54.09.81,12.57,1.61,44.11,1.47,48.83-.81h-48.92Z"/>
      <path class="cls-1" d="M707.38,407.43c-4.15-2.32-44.52-2.4-48.12,0h48.12Z"/>
      <path class="cls-1" d="M645,411.15c-10.22-2.29-40.81-1.88-43.97,0h43.97Z"/>
      <path class="cls-1" d="M615.77,653.75c2.04-1.83,4.05-3.64,5.87-5.27-2.06-2.22-3.9-4.19-5.3-5.69-2.13,1.91-4.13,3.71-6.2,5.56,1.92,1.84,3.82,3.66,5.63,5.39Z"/>
      <path class="cls-1" d="M658.93,387.59c0-.38-.02-.75-.03-1.13h-40.95c0,.38,0,.75,0,1.13h40.98Z"/>
      <path class="cls-1" d="M620.5,715.16c-.08-2.41-2.21-4.46-4.56-4.4-2.38.07-4.41,2.23-4.34,4.63.07,2.42,2.16,4.37,4.61,4.32,2.54-.06,4.37-2.01,4.29-4.56Z"/>
      <path class="cls-1" d="M588.25,404.73c0,.3.02.6.03.9h36.09c0-.3,0-.6,0-.9h-36.11Z"/>
      <path class="cls-1" d="M779.94,400.59v-.89h-28.2c0,.3,0,.59,0,.89h28.2Z"/>
      <path class="cls-1" d="M588.8,400.23c-.03-.26-.06-.52-.09-.78h-26.17c0,.26,0,.52,0,.78h26.26Z"/>
      <path class="cls-1" d="M700.74,387.31c0-.25,0-.49,0-.74h-26.27c0,.25,0,.49,0,.74h26.27Z"/>
      <path class="cls-1" d="M736.09,404.16c0-.21,0-.42,0-.63h-16.54v.63h16.54Z"/>
      <path d="M694.19,339.11c-11.36.63-23.28,1.64-35.21,1.86-12.43.24-24.88-.26-37.32-.47-3.13-.05-6.27-.14-9.4-.4-2.66-.22-4.16.79-5.08,3.32-2.52,6.95-5.82,13.52-10.91,18.97-2.18,2.34-4.64,4.54-7.32,6.27-2.93,1.89-4.58.92-5.5-2.38-.51-1.85-1.25-3.64-1.96-5.65-2.56,1.69-4.87,3.5-7.43,4.84-2.66,1.4-5.47,2.7-8.37,3.44-3.36.85-4.78-1-3.89-4.32,1.02-3.77,1.87-7.59,2.95-11.34,1.42-4.89,2.91-9.8,7.91-12.55-.11-.24-.21-.48-.32-.71-7.89,1.06-15.8,2.04-23.67,3.28-1.21.19-2.52,1.45-3.29,2.56-7.03,10.07-14.44,19.82-23.76,27.9-2.78,2.42-5.92,4.54-9.19,6.24-3.77,1.95-5.67.42-6.46-3.71-.96-5.07-2.38-10.06-3.74-15.04-1.37-5.01-.8-7.01,3.3-10.13,1-.76,2.02-1.48,2.85-2.48-11.02,3.56-21.5,8.21-27.54,18.77-4.65,8.13-8.25,16.86-12.51,25.23-4.49,8.8-9.06,17.56-13.91,26.16-1.5,2.66-3.83,4.97-6.15,7.04-2.36,2.1-4.93,1.61-6.1-1.02-3.17-7.15-6.76-14.19-8.99-21.64-2.12-7.07-3.04-14.55-3.92-21.92-.48-4.02-2.26-7.31-4.33-10.39-6.22-9.25-12.73-18.32-19.26-27.36-3.02-4.18-2.51-7.08,2.42-8.78,3.29-1.13,6.84-2.04,10.29-2.08,7.33-.08,14.67.6,22.01.74,5.76.11,11.56.25,17.27-.33,4.99-.51,9.19-3.19,12.54-7.04,6.1-7,12.22-14,17.93-20.54-1.39-.81-4.05-1.49-4.33-2.71-.49-2.13-.07-4.88.97-6.85,2.42-4.59,7.08-6.24,11.8-7.46,2.27-.58,4.67-.68,6.9-1.36,2.76-.85,5.81-1.56,8.05-3.24,15.79-11.83,32.75-21.46,51.25-28.35.51-.19.99-.45,1.42-1.13-2.47-.13-4.95-.2-7.42-.42-2.82-.25-3.66-1.42-2.31-3.86,2.11-3.84,4.52-7.52,6.98-11.14,3.55-5.22,7.32-10.3,10.87-15.52,1.34-1.98,2.29-4.21,3.45-6.31,1.57-2.85,4.27-2.73,6.71-1.97,4.1,1.28,8.29,2.58,12.03,4.63,9.7,5.32,19.22,10.96,28.69,16.67,3.1,1.87,6.25,2.73,9.77,2.41,50.22-4.55,97.45,5.91,142.17,28.57,9.41,4.77,18.39,10.4,27.48,15.79,2.08,1.23,3.9,2.97,5.61,4.7,2.03,2.05,3.07,4.57,2.11,7.52-1,3.05-3.61,3.66-6.36,4.45-5.61,1.61-11.11,3.58-16.64,5.47-.88.3-1.63.98-3.18,1.94,6.82.85,12.63,3.33,18.9,1.33,2.18-.7,4.65-1.04,6.02,1.45,1.39,2.52.43,4.85-1.6,6.56-1.63,1.37-3.44,2.62-5.37,3.51-13.58,6.23-27.99,9.32-42.72,11.17-13.3,1.67-26.61,3.22-39.9,5.02-1.23.17-2.63,1.51-3.34,2.68-5.86,9.61-13.61,17.16-23.76,22.11-1.47.71-3.13,1.16-4.76,1.37-1.73.22-3.01-.8-2.65-2.62.85-4.31,1.42-8.8,3.1-12.79,1.28-3.04,4.09-5.44,6.08-7.94ZM572.68,246.14c-1.22-.07-2.44-.13-3.79-.21v-2.99c-5.94-1.75-7.56-1.11-8.79,3.46,4.54.48,9.06.97,13.98,1.49-.73-.91-1.1-1.36-1.47-1.82,1.64-1.9,3.7-1.52,5.82-1.15.98.17,2.01.03,3.02.03,0-.16-.01-.33-.02-.49-3.04-.23-6.07-.46-9.08-.69.1.71.22,1.54.33,2.36ZM693.34,352.71c2.16-2.3,4.32-4.61,6.58-7.03-7.43,3.81-11.15,7.17-10.93,10.01.84-.3,1.64-.59,2.44-.88-1.44,1.44-2.88,2.87-4.76,4.75,6.62.59,21.35-10.78,24.64-18.66-5.7,7.36-11.87,13.01-19.95,16.28l5.92-4.95c-.15-.21-.3-.41-.45-.62-1.16.36-2.32.73-3.48,1.09ZM444.13,392.07c3-2.17,3.44-4.44,1.26-7.44-2.89,2.65-5.87,5.16-8.59,7.94-3.07,3.14-3.08,5.28-.1,9.89,2.61-3.64,5.07-7.06,7.52-10.48l-.09.1ZM447.27,408.31c2.08-3.81,4.26-7.57,6.23-11.45,3.77-7.43,7.42-14.93,11.12-22.4.38-.24.76-.66,1.15-.69,5.23-.35,9.52-2.5,12.08-7.12,4.76-8.59,12.34-13.82,20.89-17.78,5.66-2.62,11.63-4.57,18.29-7.15-3,.63-5.16,1.09-7.31,1.55-.07-.36-.13-.72-.2-1.08,7.62-1.49,15.21-3.1,22.86-4.41,4.67-.8,9.42-1.09,14.12-1.74,1.92-.26,3.79-.85,5.69-1.3.06.34.13.68.19,1.02-1,.22-2,.43-3,.65.07.24.14.48.2.72,2.35-.65,4.69-1.3,7.04-1.95.02-.16.03-.33.05-.49-1.95-.42-3.91-.84-5.86-1.26.05-.27.1-.54.15-.81.79.08,1.6.09,2.37.26,1.7.38,3.36.93,5.07,1.25,2.97.56,5.96,1.43,8.93,1.38,3.19-.05,6.38-1,10.31-1.69-3.22-.83-5.84-1.5-8.45-2.17,6.29-.18,12.18,2.5,18.4,1.39-2.93-.62-5.85-1.25-8.78-1.87l.14-.35c5.57.29,11.14.59,16.73.89-2.08,1.14-4.07,2.23-6.06,3.33.07.23.14.46.22.69,3.68-.54,7.35-1.08,11.03-1.63-9.04,12.29-18.59,23.41-32.45,29.75,4.79-4.11,9.58-8.22,14.38-12.34-.12-.14-.25-.28-.37-.42-3.53,2.34-7.05,4.68-10.58,7.02-.12-.18-.25-.36-.37-.54,5.56-4,11.12-7.99,16.68-11.99-.12-.18-.24-.36-.37-.54-4.14,2.53-8.28,5.05-12.41,7.58-.11-.18-.22-.36-.33-.55,4.62-3.47,9.24-6.94,13.87-10.4-.05-.08-.1-.16-.15-.24-3.06,1.56-6.13,3.12-9.19,4.68-.12-.23-.24-.46-.36-.68,2.82-1.8,5.65-3.59,8.47-5.39-.08-.14-.15-.29-.23-.43-2.63,1.04-5.26,2.08-7.88,3.12-.11-.25-.21-.51-.32-.76,2.71-1.24,5.43-2.47,8.14-3.71-.11-.27-.22-.54-.33-.81-3.78,1.26-7.56,2.52-11.32,3.8-3.3,1.12-5.53,3.46-6.54,6.67-1.83,5.82-3.39,11.73-5.02,17.61-.08.29.2.69.48,1.54,2.29-.93,4.54-1.58,6.54-2.69,9.37-5.21,17.03-12.47,23.94-20.58,2.1-2.46,4.1-5,6.28-7.39.66-.72,1.71-1.37,2.65-1.48,2.65-.32,5.34-.34,8.71-.52-1.56-.67-2.45-1.05-3.34-1.43,1.1-.34,2-.07,2.92.1,2.49.46,4.97,1.01,7.48,1.24.88.08,1.84-.65,2.77-1.01-.04-.21-.09-.43-.13-.64,3.39.78,6.78,1.56,10.8,2.49-1.5.5-2.33.77-3.16,1.05.03.11.06.21.1.32,2.81-.22,5.61-.45,9.04-.72-3.38-.95-6.11-1.71-8.84-2.48.09-.36.18-.73.27-1.09,5.54,1.32,11.08,2.65,16.62,3.97.07-.25.14-.5.21-.75-2.39-.76-4.78-1.52-7.17-2.28.07-.26.14-.52.21-.78,6.12,1.32,12.24,2.65,18.35,3.97.06-.28.12-.55.18-.83-3.89-1.08-7.78-2.16-11.67-3.25.07-.27.14-.55.2-.82,5.98,1.2,11.97,2.41,17.95,3.61.05-.22.1-.45.14-.67l-13.13-4.29c.07-.2.14-.4.21-.6,6.22,1.46,12.44,2.93,18.66,4.39.07-.23.13-.46.2-.69-3.46-1.09-6.93-2.17-10.39-3.26.09-.3.17-.59.26-.89,2.98.59,5.97,1.19,8.95,1.78.04-.21.09-.43.13-.64-1.87-.64-3.74-1.28-5.61-1.92.1-.31.2-.61.3-.92,4.3,1.31,8.61,2.62,12.91,3.93-6.59-2.58-12.43-6.29-17.62-10.94-1.47-1.31-3.46-3.84-3.04-5.03.59-1.66,3.23-2.59,5.01-3.8.23-.15.56-.15.85-.22,8.25-1.95,16.53-1.57,24.82-.34,2.98.44,5.96.93,8.94,1.4.03-.15.06-.29.09-.44-1.57-.64-3.14-1.27-4.71-1.91.07-.23.15-.47.22-.7,2.27.57,4.55,1.14,7.52,1.88-1.9-1.2-3.21-2.03-4.51-2.86.11-.17.21-.33.32-.5,1.86.89,3.73,1.79,6.16,2.95-1.01-1.39-1.63-2.24-2.25-3.08.25-.22.5-.43.75-.65.55,1.01,1.11,2.03,1.66,3.04.23-.17.46-.34.7-.51-.11-.68-.23-1.35-.45-2.64,1.02,1.57,1.68,2.6,2.34,3.62-2.29-5.54-1.84-10.9-.43-15.78.25,3.67.23,7.84.96,11.87.35,1.94,1.95,3.78,3.32,5.37,1.42,1.64,3.25,2.92,4.9,4.35-.19.2-.38.4-.57.6-4.4-4.25-7.53-5.2-11.73-3.33,1.94.4,3.75.46,5.25,1.18,1.19.57,2.55,1.81,2.81,2.98.19.88-1.05,2.34-1.99,3.14-1.68,1.44-3.62,2.59-5.44,3.86.08.17.16.35.24.52,1.49-.51,2.97-1.02,4.52-1.55-.22.55-.4.99-.78,1.97,1.83-1.06,3.13-1.82,4.43-2.58.13.24.25.48.38.73-4.06,2.09-8.06,4.3-12.21,6.21-1.46.67-3.26.6-5.48.95,1.85.16,3.13.28,4.4.39.01.2.02.41.04.61-3.36.37-6.73.74-10.09,1.12.02.2.04.4.06.6h5.88l.06.76c-9.34,1.05-18.68,2.09-28.02,3.14,19.25-.38,38.49-.77,57.36-5.13-6.99.57-13.97,1.13-20.96,1.7-.03-.24-.06-.47-.09-.71,2.49-.38,4.98-.77,7.48-1.15-.02-.19-.04-.39-.06-.58-1.63-.1-3.27-.21-4.9-.31.02-.19.03-.37.05-.56,5.29-.72,10.58-1.43,15.88-2.15-2.31-.43-4.53-.21-6.76-.03-2.08.16-4.16.27-6.25.4,0-.16.02-.33.02-.49,4.12-.71,8.24-1.42,12.36-2.13-.04-.23-.08-.47-.11-.7-3.24.4-6.49.81-9.73,1.21-.01-.26-.02-.52-.03-.78,4.46.11,8.79-3.98,13.41.23.72.66,1.85.86,2.8,1.28-1.82-1.89-3.97-3.24-5.77-4.97-5.59-5.34-8.68-11.94-10.93-19.39-2.65-8.8-1-15.99,4.24-23.14,4.91-6.71,11.74-11.02,17.98-16.26-1.96,1.16-3.93,2.32-5.89,3.48-.09-.15-.18-.3-.27-.45,2.67-2.03,5.35-4.07,8.02-6.1-.02-.25-.05-.5-.07-.74h-6.94c-1.12-3.02-3.67-3.88-6.12-1.82l.06-.06c-.28-.04-.8-.11-.8-.12.32-3.03-1.86-2.85-4.11-2.62.78.7,1.56,1.39,2.34,2.09-.17.91.21,1.63.34,2.4.1.63-.09,1.31-.15,1.97-.66-.21-1.9-.4-1.9-.62-.08-3.62-3.1-4.22-5.45-5.52-.22-.12-.34-.42-.59-.75.75-.19,1.37-.35,1.89-.49-.45-.78-.86-1.47-1.27-2.16-1.82,2.38-3.68-.63-5.41.23-.65.68-1.72,1.89-2.06,1.71-.96-.51-1.62-1.59-2.31-2.35-.98,4.02-2.84-.23-4.49-.05.51-.22,1.02-.43,1.52-.65-.1-.2-.19-.39-.29-.59-1.32-.3-2.64-.61-3.44-.79-.32,1.23-.54,2.08-.76,2.94-.74-.58-1.55-1.09-2.2-1.76-.29-.3-.24-.91-.36-1.37-.6-2.21-2.03-2.61-4.24-1.94,3.8,1.93,4.64,4.97,1.68,7.09-1.33-2.1-2.65-4.18-4.27-6.74-2.06-.84-2.34,1.54-3.05,3.05-.86,1.83-2.1,2.5-3.61,1.17-1.07-.94-1.62-2.46-2.56-3.96,1.67-.28,3.05-.51,4.43-.75-.06-.31-.11-.63-.17-.94-4.86.77-9.71,1.55-14.84,2.37-.48,1.25-.95,2.81-1.69,4.24-.33.65-1.14,1.17-1.85,1.45-.3.12-1.26-.5-1.3-.86-.09-.77-.02-1.76.41-2.35,1.01-1.4,2.27-2.63,3.8-4.35-1.42-.58-2.57-1.04-4.06-1.65.65,1.38,1.53,2.5,1.28,2.86-.61.9-1.68,1.88-2.66,2-.8.09-1.74-1.03-2.67-1.64.93-1.08,1.5-1.75,2.33-2.71-4.27,1-8.06,1.89-12.01,2.81.19,2.63-2.7,2.33-4.35,3.37-.25.16-1.26-.33-1.37-.69-.15-.49.03-1.33.4-1.7.86-.86,1.91-1.53,3.34-2.62-2.9.18-5.21.32-7.51.46-.19.01-.49-.08-.57.02-.47.56-.89,1.16-1.32,1.75l.11-.11c-4.69,3.23-5.02,3.2-6.21-.82h-6.6c0,.26,0,.52,0,.78.77.05,1.54.1,2.97.19-3.37,1.99-5.67,5.33-10.13,2.34,1.38-.87,2.43-1.54,3.49-2.21-.05-.14-.09-.27-.14-.41-1.51.45-3.02.91-4.51,1.36.3,2.75-.61,3.32-4.44,3.32-1.35,2.09-2.32,4.01-3.72,5.55-.47.52-2.03.04-3.08.02.24-.85.34-1.77.77-2.51.36-.62,1.26-.94,1.62-1.56.35-.6.33-1.43.57-2.66-.92.81-1.44,1.27-1.66,1.47-1.12-.79-2.04-1.43-2.96-2.08-.16.2-.31.39-.47.59.49.65.99,1.29,1.38,1.8-.99,1.24-1.87,2.27-2.66,3.36-.92,1.27-1.5,3.05-2.71,3.74-.86.49-2.54-.48-4.67-1,2.05-1.91,3.4-3.17,4.75-4.42-1.73-.49-3.43-.98-5.75-1.64,1.64,2.14,2.04,3.71-.56,4.59-1.02-.78-2.06-1.56-3.13-2.38-2.19,2.09-4.49,4.29-6.94,6.62-.88-1.75-1.39-2.76-2.09-4.16-1.96,1.82-3.74,3.31-5.33,4.99-1.57,1.66-2.67,1.75-3.51-.64-1.04.58-2.39.89-2.94,1.72-1.82,2.76-4.21,3.71-7.43,3.59-2.66-.1-5.19.28-6.29,3.59-.45,1.34-2.2,2.25-3.36,3.36-.41-.31-.82-.62-1.22-.93,1.14-2.21,2.28-4.42,3.4-6.61-3.75-.66-2.14,4.95-5.55,4.92.64,1.12,1.11,1.92,1.74,3-1.29,1-2.47,1.91-3.64,2.82-.24-.2-.47-.4-.71-.6.22-1.59.44-3.17.68-4.9-.91.34-1.77.66-2.03.75-.57,2.07-.83,3.74-1.54,5.19-.29.58-1.57.67-2.4.99-.12-.97-.45-1.98-.28-2.91.13-.75.86-1.39,1.32-2.08-.11-.15-.23-.3-.34-.46-1.46.93-2.91,1.87-4.58,2.94,1.26,1.53,2.32,2.81,3.6,4.36-.12.14-.68,1.06-.93.98-.66-.2-1.19-.84-1.37-.99-2.13.98-4.07,1.88-6.01,2.77-.1-.24-.2-.49-.31-.73.69-1.48,1.39-2.96,2.08-4.43-.27-.14-.53-.28-.8-.42-.92,1.42-2.12,2.73-2.7,4.27-.66,1.75,1.3,5.27-3.17,4.07-.13-.03-.37.77-.66.87-.69.22-1.45.25-2.18.35.19-.78.18-1.7.61-2.3.82-1.13,1.9-2.07,2.87-3.09-.29-.24-.58-.48-.87-.73-2.28,2.6-4.55,5.21-7,8-.58-1.09-.95-1.79-1.52-2.84-.91,2.29-1.44,4.35-2.49,6.08-1.16,1.9-2.79,3.52-4.1,5.11-1.27-.97-2.23-1.7-3.14-2.38-2.3,3.05-4.38,5.77-6.4,8.54-.16.22.29.81.22,1.18-.11.59-.34,1.57-.66,1.63-.59.11-1.34-.24-1.91-.58-.37-.22-.55-.78-.73-1.07-.85,1.31-1.62,2.49-2.38,3.66.15.07.3.13.45.2-.42,1.09-.83,2.19-1.25,3.28-.85-.35-1.7-.71-2.83-1.18-1.43,1.72-3.2,3.86-5.05,6.09,1.73,1.1,1.84,2.54.44,3.64-.69.54-2.01.29-3.04.39-.58-.02-1.22.62-1.98,1.04-2.65,1.46-4.13,3.43-4.33,6.65-.15,2.41-2.07,3.11-4.41,2.08-.04.39.08.96-.13,1.12-2.11,1.63-5.08,2.47-5.16,5.89,0,.05-.15.11-.24.15-2.05,1.06-4.1,2.12-5.69,2.94-.57,1.3-1.01,2.29-1.44,3.27-.67-.36-1.35-.72-1.67-.89-.85.93-1.62,1.78-2.4,2.63-.39-1.03-.77-2.06-1.09-2.91-3.05,3.81-3.27,10.43-.39,15.08.47.76.44,1.84.63,2.76-1.05.34-2.21.51-3.15,1.06-3.92,2.32-7.78,4.76-11.66,7.16-2.49,1.54-4.97,3.08-7.45,4.62.08.18.17.35.25.53,1.66-.75,3.33-1.51,5.27-2.39-.4.74-.62,1.15-.84,1.55l.06-.06c-4.85,2.17-5.33,3.23-3.63,8.57,3-2.37,5.91-4.67,8.81-6.97-2.23-2.9-2.09-3.21,1.97-5.15.56.66,1.15,1.34,2.19,2.56.08-1.25.26-1.87.14-2.43-.44-1.98.2-3.08,2.32-3.12.24,0,.6.08.71-.05,1.68-1.96,3.32-3.95,4.97-5.93.84,1.36,1.68,2.71,2.54,4.1-1.9,1.73-3.71,3.57-5.72,5.16-5.73,4.55-11.55,9-17.32,13.5-.21.16-.31.47-.55.86.53.22.99.42,1.01.43-.2,2.16-.38,4.11-.57,6.06.53.31,1.06.63,1.59.94.87-1.3,1.6-2.71,2.62-3.88,6.12-7.01,12.32-13.94,18.42-20.95.43-.5.35-1.44.51-2.17,2.3,1.99,4.62,3.96,6.89,6,.56.5.92,1.21,1.37,1.82-1.75,1.39-3.51,2.79-5.26,4.18.22.09.45.18.67.27-.38.91-.71,1.84-1.16,2.71-.21.4-.75.62-1,1.01-.78,1.23-1.5,2.49-2.23,3.75-.31.55-.63,1.1-.87,1.68-.56,1.35-1.08,2.73-1.61,4.09-.13-.09-.27-.17-.4-.26-.17,1.74-.34,3.48-.44,4.47-1.54.36-2.75.29-3.05.78-1.75,2.89-3.29,5.92-4.9,8.9-1.04,1.23-2.01,2.51-3.12,3.66-2.18,2.26-1.55,4.23.9,6.75.61-.88,1.18-1.66,1.69-2.48,1.16-1.88,2.27-3.79,3.41-5.69ZM591.16,221.96c5.16,2.91,10.32,5.81,15.47,8.73,2.45,1.38,4.88,2.79,7.33,4.18.12-.23.24-.45.35-.68-10.33-6.3-20.34-13.2-32.21-16.55-.91-.26-2.06-.47-2.85-.13-.72.31-1.32,1.34-1.54,2.17-.12.42.58,1.38,1.11,1.61,3.78,1.59,7.6,3.09,11.43,4.54.96.36,2.02.43,3.29.69-.97-1.87-1.68-3.22-2.38-4.57h0ZM445.37,400.02c1.02-1.46,2.05-2.92,3.13-4.46-1.93-1.11-1.77-2.22-.17-3.13,2.79-1.59,5.42-6.62,5.03-10.25-.63.91-1.08,1.63-1.59,2.3-4.09,5.34-8.04,10.78-12.33,15.95-3.37,4.06-3.61,4.98.04,10.15,1.97-3.57,3.77-6.83,5.57-10.09.1-.16.21-.32.32-.47ZM467.84,386.95c-1.07.94-2.55,1.68-3.14,2.86-2.75,5.48-5.23,11.1-7.88,16.63-.36.75-1.15,1.3-1.74,1.94-.22-.14-.45-.28-.67-.41l2.02-5.94c-.18-.06-.35-.13-.53-.19-1.68,3.06-3.35,6.13-5.03,9.19.14.09.28.17.42.26.66-.42,1.32-.84,2.16-1.38-.55,3.72-4.76,10.34-7.57,11.48,1.55-2.59,2.86-4.78,4.23-7.06-3.89-1.93-.63-3.63.01-5.36.54-1.45,1.33-2.8,2.01-4.2-.27-.13-.53-.25-.8-.38-2.26,3.85-4.52,7.7-6.79,11.55-1.63,2.76-1.3,5.43,1.25,8.41,1.16-.99,2.52-1.83,3.44-3.01,1.86-2.38,3.78-4.79,5.16-7.46,4.6-8.91,8.96-17.94,13.39-26.94,1.45-3.54,2.9-7.08,4.35-10.62-2.04,2.57-3.7,5.31-5.09,8.18-.27.56.51,1.62.8,2.45ZM785.7,315.84c6.45-.8,12.49-1.48,18.5-2.35.89-.13,1.65-1.1,2.48-1.68-1-.32-2.08-1.07-3-.91-9.11,1.65-18.12,1.34-27.11-.85-1.51-.37-3.16-.21-4.74-.29-.03.25-.07.49-.1.74l5.58,2.33c-1.26.19-2.4.02-3.5-.29-2.73-.76-5.15-.85-7.77.92-1.72,1.16-4.24,1.7-6.35,1.57-3.39-.2-4.4-2.8-2.58-5.67.65-1.03,1.45-1.95,2.19-2.92-.93.23-1.57.76-2.26,1.23-.65.45-1.36.82-2.04,1.23,8.3-8.41,18.51-12.45,30.05-13.37-4.48,1.51-9.36,2.23-13.49,4.38-4.68,2.43-8.75,6.07-12.91,9.41-.71.57-1.07,2.57-.62,3.3.48.77,2.18,1.22,3.26,1.09,1.49-.17,3.02-.82,4.33-1.62,1.57-.96,2.94-2.27,4.37-3.46,10.32-8.58,21.87-13.52,35.6-12.17.67.07,1.42-.71,2.13-1.09-.07-.23-.14-.45-.22-.68-2.72-.39-5.43-.78-8.15-1.17,0-.12,0-.25,0-.37,1.36-.23,2.73-.46,4.2-.71-.61-2.11-1.17-4.08-4.09-2.88-.35.14-.89-.22-1.35-.29-1.65-.27-3.34-.85-4.95-.69-3.12.32-5.61-.66-7.97-4.28,1.88-.34,3.63-1.19,4.89-.72,1.03.38,1.48,2.33,2.32,3.82.07-.87.62-2.39.15-2.83-1.11-1.05-2.77-2.33-4.09-2.2-2.88.27-4.86-.83-6.6-2.85-.33.5-.55.84-.52.79-2.77-1.2-5.19-2.82-7.8-3.23-2.94-.46-6.05.19-9.28.36.38-.64.77-1.29,1.22-2.05-.97.23-1.76.42-2.59.62.08-.61.14-1.05.2-1.49-4.64-.31-8.64-3.86-13.69-2.39-3.56,1.04-3.72.9-6.09-1.36-4.61-4.41-8.82-5.34-15.45-1.66-6.62,3.67-11.21,9.13-15.16,15.23-5.2,8.04-4.33,18.75,5.33,24.45,1.69,1,3.28,2.2,5.06,2.98,2.41,1.06,4.93,2.55,7.09.58.47,1.23.58,2.89,1.4,3.38,5.37,3.27,11.01,5.58,17.5,3.35.84-.29,1.99-.48,2.71-.13,6.97,3.33,14.42,3.37,21.85,3.13,4.92-.16,9.81-.93,14.72-1.42-1.31,1.07-2.73,1.71-4.21,1.87-5.05.57-10.12,1.33-15.19,1.38-11.16.11-22.52.54-32.92-4.35-8.24-3.88-16.07-8.63-23.8-12.84.16,7.29,10.32,11.66,15.79,11.92,1.18.06,2.33.61,3.49.93-.14.47-.27.93-.41,1.4-4.46-1.38-8.92-2.77-13.44-4.17,2.25,4.84,11.79,8.41,19.57,6.85-2.72-.42-5.45-.83-8.17-1.25.01-.24.02-.48.03-.72,1.82-.21,3.79-.96,5.43-.51,3.69,1.02,7.1,3.18,10.82,3.9,6.53,1.28,13.21,2.46,19.83,2.5,5.12.04,10.33-1.4,15.34-2.77,6.18-1.69,12.2-3.99,18.28-6.03-.07-.19-.13-.38-.2-.58-2.06.28-4.13.55-6.19.83-.02-.14-.05-.28-.07-.42,1.33-.36,2.65-.71,3.98-1.07-.02-.09-.04-.17-.06-.26-1.94.16-3.88.31-6.2.5.64-.56,1.01-.89,1.61-1.42-2.04-.18-3.81-.34-5.98-.54ZM511.28,349.32c-1.54,1.06-2.6,1.75-3.62,2.49-3.45,2.52-5.12,4.9-2.53,9.29,1.03,1.75.84,4.2,1.43,6.26.32,1.1,1.13,2.05,1.84,3.27-.06.47-.33,1.55-.22,2.59.03.26,1.32.37,2.17.59-.33.4-.77.73-.9,1.15-.26.84-.35,1.73-.52,2.6.89.03,1.84.28,2.64.03,1.1-.35,2.12-1,3.09-1.65,7.99-5.38,14.22-12.56,20.11-20.04,2.37-3.01,4.37-6.31,6.54-9.48-3.25,3.19-5.9,6.81-8.82,10.2-2.99,3.48-6.11,6.87-9.41,10.06-3.1,3-6.51,5.69-9.78,8.52-.13-.15-.25-.31-.38-.46,4.02-4.38,8.05-8.76,12.07-13.14-.2-.18-.41-.36-.61-.54-3.22,2.68-6.43,5.35-9.65,8.03-.18-.2-.35-.4-.53-.59,4.43-4.67,8.85-9.34,13.28-14.02-.13-.12-.26-.23-.4-.35-5.18,4.4-10.36,8.81-15.55,13.21-.21-.22-.42-.45-.62-.67,4.34-4.49,8.67-8.99,13.01-13.48-.19-.19-.39-.38-.58-.56-1.56,1.42-3.13,2.84-4.68,4.26q-3.42,3.13-5.48,2.34c3.92-4.06,7.82-8.11,12.11-12.56-4.65,3.93-8.84,7.48-13.03,11.03-.29-.25-.57-.51-.86-.76,1.28-1.58,2.57-3.15,3.85-4.73-.16-.14-.31-.28-.47-.43-1.64,1.07-3.27,2.15-4.91,3.22-.15-.21-.29-.41-.44-.62,1.19-.93,2.37-1.85,3.82-2.99-1.12.05-1.82.08-2.62.12.21-.7.34-1.16.65-2.19ZM670.62,319.09c-.1-.17-.19-.33-.29-.5,3.75-.31,7.49-.62,11.24-.92-.01-.29-.02-.57-.03-.86h-13c0-.23.01-.46.02-.69,3.22-.14,6.43-.29,9.65-.43,0-.24-.01-.48-.02-.72h-13.97c14-3.01,27.63-.68,41.24,2.54-2.57-1.04-5.17-1.82-7.82-2.42-10.57-2.39-21.23-3.74-32.03-1.95-2.15.36-4.17,1.44-6.6,2.31.91,1.19,1.21,1.69,1.61,2.09,4.83,4.86,10.6,8.37,16.8,11.1,5.25,2.31,13.43,1.54,17.79-1.24-3.33.61-6.65,1.21-9.98,1.82-.05-.24-.09-.48-.14-.72l4.48-1.48c-.03-.12-.06-.24-.09-.36-3.05.39-6.11.78-9.16,1.17-.04-.2-.08-.39-.11-.59,2.9-.66,5.79-1.32,8.81-2.01h-12.03s0-.08,0-.12c4.4-.55,8.81-1.11,13.21-1.66l-.02-.19h-13.23c-.01-.15-.02-.31-.04-.46,3.83-.47,7.67-.93,11.5-1.4-.02-.08-.04-.17-.06-.25h-14.6c0-.13-.01-.27-.02-.4,5.22-.49,10.43-.97,15.65-1.46,0-.07,0-.13,0-.2h-18.75ZM436.7,369.71c-.75-3.19,2.72-2.27,4.07-3.57.5-1.43,1.17-2.73,2.16-3.73.82-.84,1.99-1.34,3.04-1.95.49-.29,1.04-.47,1.57-.69.98-.4,1.97-.79,2.96-1.18-.21-.42-.42-.84-.64-1.26-3.02,1.62-5.96,3.4-9.08,4.81-3.16,1.43-5.97,4.04-10,3.16,1.41-1.09,2.91-2.01,4.54-2.61,1.7-.63,3.52-.95,5.29-1.4-.07-.27-.14-.54-.21-.81-2.3.42-4.6.84-7.19,1.32.8-1.19,1.38-2,1.89-2.84.4-.65.72-1.34,1.08-2.02.74.45,1.49.9,2.58,1.56.58-.63,1.29-1.5,2.11-2.25.45-.41,1.43-.98,1.59-.83,2.77,2.51,4.42-.58,6.62-.75l-.16-.9c-9.4,1.48-18.79,2.97-28.64,4.52,2.36,3.29,4.19,5.85,5.99,8.35,1.09-.29,2.07-.54,3.04-.8.08.17.16.33.24.5-.81.74-1.63,1.48-2.53,2.3,1.1,1.62,2.11,3.13,2.97,4.39,2.36-1.17,4.34-2.15,6.7-3.32ZM429.94,339.42c-.05-.36-.1-.71-.15-1.07-1.06.24-2.12.47-3.18.72-.88.2-2.27.85-2.54.54-1.79-2.11-4.09-1.44-6.28-1.46-2.04-.02-4.07,0-6.11,0,0-.27-.01-.53-.02-.8,4.53-.26,9.06-.81,13.58-.71,8.69.18,17.38.77,26.07,1.1,1.45.05,2.92-.35,4.36-.53-7.57-.53-15.07-1.29-22.59-1.52-6.62-.2-13.27.07-19.89.38-1.78.08-3.59.93-5.25,1.71-.57.27-.74,1.41-1.1,2.15.65.26,1.28.63,1.95.76.68.13,1.4.03,2.67.03-.9,1.26-1.41,1.96-2.12,2.96.97.43,1.73,1.09,2.45,1.04,7.18-.43,14.34-1.13,21.52-1.44,4.24-.18,8.5.21,12.76.31,2.03.05,4.06,0,6.09,0,.01-.22.02-.44.03-.66-5.98-.5-11.97-1-18.04-1.51.52-.78.93-1.4,1.34-2.03-.16-.42-.32-.83-.48-1.25-2.42,4.25-5.8,3.23-8.99,3.25-.06-.26-.11-.52-.17-.77,1.36-.4,2.72-.8,4.07-1.19ZM425.22,344.51c-4.47.42-8.76.83-13.05,1.24-.09.35-.18.69-.27,1.04,1.08.77,2.16,1.53,3.35,2.37-.27,2.4.6,3.41,2.71,2.88,10.63-2.65,21.39-4.49,32.39-4.59.03-.31.06-.62.09-.93-4.41-.29-8.82-.59-13.15-.88-1.36.65-2.83,1.35-4.66,2.23v-2.83c-1.44-.08-2.76-.14-4.17-.22.17,1.08.29,1.89.45,2.92h-3.31c-.12-1.01-.22-1.85-.38-3.23ZM570.19,232.6c3.33.89,6.41,1.82,9.53,2.52,1.2.27,2.51.07,3.77,0,.89-.05,1.92-.57,2.63-.28.96.4,3.07.24,2.14,2.47-.07.18.27.71.52.8.27.1.75-.02.99-.22,2.7-2.3,4.82-2.42,8.12-.41.87.53,1.75,1.04,2.62,1.56.13-.22.26-.44.38-.66-1.39-.76-2.72-1.66-4.18-2.26-5.85-2.4-11.74-4.71-17.61-7.04q-5.66-2.24-8.51,2.71c-.14.24-.25.48-.42.79ZM571.24,239.83c2.99-.82,4.36-4.34,7.26-1.59,1.76,1.67,3.71,2.82,6.29,1.54.19-.1.88.77,1.32,1.21.31.3.54.83.89.92,2.35.62,4.73,1.15,7.44,1.79-7.79-4.58-15.67-8.12-24.26-9.86-.81-.16-2.15.35-2.66,1-1.4,1.8-2.48,3.84-3.74,5.87,5.32.95,10.75,1.93,16.17,2.9.09-.27.17-.53.26-.8-2.73-.91-5.45-1.81-8.97-2.98ZM573.88,226.7c5.86,1.63,11.46,3.18,17.13,4.76.09-.9.14-1.44.24-2.43,1.58,1.63,5.47.44,3.26,5.09,1.22-1.11,1.77-1.61,2.41-2.21.64.83,1.19,1.54,1.74,2.25.13-.28.26-.56.39-.84,3.7.79,6.62,3.71,11.03,5.12-1.32-1.03-1.88-1.62-2.56-1.97-8.59-4.44-17.13-9.01-25.84-13.19-4.25-2.04-4.41-1.71-7.01,2.16-.2.3-.38.6-.8,1.26ZM450.17,351.2c-.06-.22-.13-.44-.19-.66-1.76.1-3.94-.42-5.19.43-2.81,1.92-5.94-2.3-8.41.8,0,0-.41-.41-.67-.48-1.07-.28-2.17-.77-3.23-.7-2.43.16-4.86.47-7.25.95-2.53.5-5.01,1.26-7.55,1.92.58,2.88,1.5,3.9,4.31,3.28,6.74-1.49,13.59-2.5,20.37-3.77,2.62-.49,5.21-1.17,7.81-1.77ZM539.98,341.06c-7.95.23-16.17-.36-23.6,3.83,9.38-.43,18.82-.37,27.89-3.43-2.34.36-4.68.72-7.02,1.07-.05-.25-.1-.5-.15-.74.96-.24,1.92-.49,2.88-.73ZM621.4,241.62c-15.13,1.63-29.75,5.39-44.05,10.47,14.68-3.49,29.37-6.98,44.05-10.47ZM499.86,290.37l-.11-.55c-2.89,1.07-6.05,1.71-8.57,3.34-2.16,1.39-3.72,3.83-5.25,6.01-.42.59-.01,2.07.48,2.86.23.37,1.61.28,2.35.04,1.13-.36,2.17-1.04,3.12-1.52-.62-.54-1.67-1.26-1.59-1.41.54-1.07,1.31-2.03,1.68-2.56-.26-.08-1.35-.41-2.44-.74-.06-.37-.12-.74-.18-1.11,3.5-1.46,7.01-2.92,10.51-4.37ZM566.12,249.58c-6.72-2.92-8.58-2.37-9.1,2.1h11.94c0-.16,0-.32.01-.47-2.92-.23-5.84-.45-8.77-.68l.07-.95h5.86ZM588.37,366.12c6.6-3.86,15.27-16.32,15.59-21.68-2.15,3.68-4.16,7.73-6.76,11.35-2.63,3.67-5.86,6.91-8.83,10.33ZM454.31,377.85c-.44-.43-.87-.87-1.31-1.3.92,3.22-.06,4.44-3.49,4.62-.61.03-1.19.71-1.87,1.14.88,1.05,1.54,1.84,2.45,2.92,3.08-4.59,6.07-9.05,9.06-13.51-.04,0-.09,0-.13,0-1.57,2.04-3.14,4.09-4.71,6.13ZM723.18,323.51c5.74,4.19,11.65,3.07,17.4,2.95-5.57-.94-11.14-1.89-17.4-2.95ZM460,392.78c-.21-.23-.43-.47-.64-.7-.53.63-1.12,1.21-1.57,1.89-.52.77-.81,1.71-1.4,2.42-1.73,2.07-1.66,2.31,1.42,3.25.73-2.28,1.46-4.56,2.19-6.85ZM596.13,354.53c-.2-.17-.39-.33-.59-.5-3.25,3.88-6.5,7.76-9.75,11.64.25.21.5.41.75.62,3.19-3.92,6.39-7.84,9.58-11.77ZM790.17,310.95c.03-.21.06-.41.09-.62-3.44-.68-6.88-1.36-10.32-2.03-.06.36-.12.73-.18,1.09,3.47.52,6.93,1.04,10.4,1.56ZM742.12,328.4c0-.15,0-.29-.01-.44h-10.08c.01.32.03.65.04.97l10.05-.53ZM696.77,345.38c-2.37,1.67-5.88,1.97-7.27,4.75.19.22.37.43.56.65,2.24-1.8,4.47-3.6,6.71-5.4ZM466.21,376.43c-.22-.08-.45-.16-.67-.25-.61,2.91-3.33,5.05-2.44,8.51,1.04-2.75,2.08-5.51,3.12-8.26ZM563.5,262.58c-3.23,1.93-5.99,3.59-8.65,5.18,2.41.09,6.75-2.32,8.65-5.18ZM750.29,329.21c-.03-.29-.07-.57-.1-.86-3.57.5-7.13,1-10.7,1.5l.06.54c3.58-.39,7.16-.78,10.74-1.18Z"/>
      <path d="M792.09,253.61c2.5.27,4.65.49,7.72.82-2.21,1.68-3.97,3.02-5.91,4.5,2.1.28,4.55.61,6.95.94-.88,2.61-4.15,4.65-6.62,3.58-4.2-1.82-8.26-3.96-12.75-6.15,1.16-.71,1.99-1.21,2.53-1.55-1.82-1.43-3.59-2.81-5.35-4.2.14-.12.28-.23.42-.35-1.69-.14-3.38-.27-5.63-.45,1.02,1.36,1.88,2.52,3.22,4.31-4.88-2.16-9.39-3.61-13.28-6.04-3.68-2.31-8.38-2.2-12.36-5.9,2.51.25,4.18.42,5.53.56,1.21-.96,2.23-1.81,3.31-2.6,1.22-.89,2.49-1.73,3.57-2.94-3.55.84-6.19-.27-9.11-2.11-5.78-3.63-11.94-6.67-17.99-9.87-2.48-1.31-5.06-2.42-8.34-3.97,2.3,2.77,4.12,4.96,5.94,7.15l-.57.73c-5.33-4.02-10.6-8.13-16.01-12.03-5.47-3.95-11.09-7.69-16.64-11.52-.19.16-.38.31-.57.47,1.14,1.9,2.28,3.81,3.41,5.71-.12.14-.23.28-.35.42-3.58-3.35-7.16-6.71-11.09-10.38,1.12-4.13-2.48-6.86-4.4-10.31-2.95,3.78-5.8,7.42-8.95,11.45,2.87,8.23,11.36,12.34,17.63,19.01-12.96-7.12-25.58-14.06-38.19-20.99-.17.2-.33.4-.5.59,2.65,2.39,5.3,4.78,7.94,7.16-.25.26-.5.51-.74.77-15.57-9.45-27.58-23.35-42.29-33.99,2.98,4.77,5.95,9.54,9.37,15-1.67-.9-2.69-1.45-4.19-2.26.44,1,.63,1.67,1.01,2.22,3.32,4.85,6.61,9.72,10.05,14.49,2.46,3.42,5.75,5.74,9.74,7.26,2.33.88,4.45,2.4,6.52,3.83,2.84,1.97,5.54,4.13,8.08,6.58-4.76-2.17-9.52-4.34-14.39-6.56-.19.81-.3,1.26-.34,1.47-9.37-5.81-18.77-11.64-28.18-17.47-.22.22-.43.45-.65.67l7.66,11.71c-.09.12-.19.23-.28.35-3.3-2.21-6.59-4.43-10.15-6.82.67-.3,1.11-.5,2.02-.91-4.35-4.58-8.57-9.02-12.88-13.55-4.13,3.24-8.18,6.4-12.22,9.57,6.62-8.84,11.72-18.77,20.95-26.1-5.27-5.1-6.82-11.32-7.4-17.94-.33-.11-.67-.21-1-.32-3.29,4.18-6.55,8.4-9.89,12.54-2.14,2.65-4.4,5.19-6.61,7.78-.22-.13-.44-.27-.65-.4.25-.58.51-1.16.75-1.71-4.98.97-10.57,6.48-16.48,16.44.99-.35,1.66-.58,2.34-.82.11.19.23.37.34.56-4.71,3.98-9.42,7.97-14.13,11.95l-.38-.36c1.49-1.95,2.97-3.89,4.46-5.84-.12-.13-.24-.26-.36-.39-11.2,6.69-22.4,13.39-31.63,18.9,2.19-2.37,6-6.33,9.6-10.48,1.63-1.87,2.82-4.11,4.23-6.18,1.92-2.82,3.8-5.67,5.8-8.43,1.1-1.52,1.21-2.74.23-4.49-.94-1.69-1.14-3.8-1.8-6.2-4.43,4.37-8.77,8.65-13.51,13.33-.12-1.06-.16-1.45-.29-2.62-3.07,2.05-6.09,3.63-8.55,5.83-3.06,2.75-5.39,6.34-8.53,8.99-3.39,2.87-7.35,5.06-11.39,7.22,1-1.31,2-2.63,3.01-3.94l-.65-.83c-8.86,5.32-17.73,10.64-26.59,15.96-.13-.18-.25-.36-.38-.55,1.2-.92,2.42-1.8,3.58-2.76,6.57-5.42,13.16-10.83,19.67-16.32,1.56-1.31,3.01-2.11,5.2-2.09,3.33.03,6.51-.71,8.98-3.45,4.55-5.04,9.8-9.08,15.93-12.24,4.1-2.12,7.48-5.63,11.18-8.52.99-.78,1.98-1.56,2.89-2.27,4.81,2.63,9.45,5.11,14.04,7.7,1.58.89,2.82.94,4.12-.46,1.13-1.21,2.49-2.21,3.67-3.38,4.31-4.26,8.8-8.18,13.86-11.68,5.75-3.97,10.53-9.33,15.75-14.08,1.08-.99,2.21-1.92,3.44-3,2.51,1.87,4.98,3.62,7.35,5.5,8.97,7.11,17.59,14.73,26.97,21.25,8.19,5.7,15.08,12.74,22.52,19.22,2.12,1.85,3.9,2.18,6.97,1.07,5.57-2.01,9.68-5.76,14.11-9.21,1.67-1.3,2.75-1.22,4.55-.15,9.34,5.53,17.56,12.43,25.11,20.16,3.21,3.28,6.79,5.31,11.61,5.29,1.91,0,4.13,1.03,5.69,2.26,4.46,3.51,8.58,7.45,12.97,11.05,3.77,3.08,7.1,7.3,13.06,5.59-.03-.15-.14-.64-.24-1.13,4.94-1.77,5.26-1.98,6.25-4.38-4.48,2.65-5.53-1.4-8.29-3.87h7.14c-.81-.96-1.18-1.39-1.72-2.03,1.12-.48,2.18-.94,2.98-1.29-1.67-1.41-3.29-2.79-4.91-4.16.16-.32.33-.65.49-.97,1.24.12,2.47.25,3.44.34.45-.98.86-1.89,1.4-3.08-.52-.91-1.31-2.28-2.33-4.04h2.12c.71-3.48,1.35-6.66,2-9.83.18-.03.35-.06.53-.08.62,3.34,1.25,6.67,1.93,10.34.19-.01.97-.06,2.56-.16-1,1.59-1.74,2.78-2.52,4.03.23.65.57,1.59,1,2.82.98-.13,2.39-.33,3.79-.52.15.31.31.62.46.93-1.7,1.36-3.4,2.71-5.28,4.21,1,.4,2.02.81,3.22,1.29-.48.52-.88.96-1.64,1.78,2.48-.16,4.5-.28,6.52-.41-1.89,2.86-3.41,5.97-7.72,4.52,2.8,3.61,3.71,3.96,9.76,4.03-1.65,3.29-3.74,4.39-7.78,4.08q.94,1.98,9.24,3.45c-1.32,2.45-4.99,3.7-9.01,3.06,3.18,3.78,6.32,4.73,10.45,3.07-.05-.65-.11-1.35-.18-2.2,1.29.2,2.3.35,3.8.59-.82-1.18-1.38-2-2.12-3.08.88-.24,1.62-.44,2.44-.67-.47-.92-.87-1.7-1.27-2.47.24.06.47.13.71.19.92-2.9,1.85-5.81,2.91-9.15.52,2.04.61,3.82,1.43,5.14.7,1.12-1.46,3.81,2.33,3.12-.87,1.31-1.44,2.16-2.14,3.21.86.15,1.62.29,2.83.51-.85,1-1.48,1.74-2.55,3,1.72-.21,2.94-.36,4.47-.55-1.04,1.9-1.99,3.64-3.2,5.86,2.04.14,3.63.26,5.22.37.14.19.27.38.41.58-1.55,1.1-3.11,2.2-5.36,3.8ZM785.78,248.37c-.09-.21-.17-.42-.26-.63-1.74.5-3.49.99-5.91,1.68,1.27.97,1.97,1.5,3.29,2.5-.46-1.19-.63-1.66-.78-2.05,1.26-.52,2.46-1.01,3.66-1.5Z"/>
      <path d="M440.03,271.7c-2.63-1.51-4.85-2.78-7.06-4.06.12-.21.23-.42.35-.64,2.7-.4,5.41-.8,8.55-1.26-.62-.81-.89-1.16-1.17-1.52,1.12-.33,2.12-.62,3.12-.91-3.85.07-6.63-1.34-9.09-5.06,3.83.25,7.41,1.26,10.09-1.82-3.32.1-5.4-1.15-6.83-4.07,2.33-.28,4.68-.55,7.5-.88-2.5-1.77-4.35-3.08-6.2-4.39.1-.2.2-.41.29-.61h4.74c-.26-.58-.46-1.02-.72-1.6.78-.31,1.55-.63,2.35-.95-1.44-1.26-2.79-2.44-4.78-4.18h4.75c-.34-1.95-.65-3.77-1-5.73h1.26c.73-3.26,1.41-6.24,2.08-9.23.16-.01.32-.03.48-.04.73,2.91,1.46,5.81,2.28,9.11-.03,0,.65.03,1.33.07-.44,1.94-.86,3.73-1.34,5.85,1.56-.28,2.64-.47,3.73-.66l.54.68c-1.21,1.35-2.41,2.69-3.62,4.04.28.25.93.84,2.01,1.82,1.16-.35,2.83-.74,3.36,2.04.15.8,2.13,1.26,3.5,2,0-.83,0-1.34,0-1.85,2.93-.39,5.47-1.42,7.19-4.41-5.13,1.49-7.29.92-9.92-2.66,3.86.03,7.38-.61,10.15-3.6-4.12,1.61-7.06-.05-10.37-3.63h6.72c-.19-.45-.38-.92-.5-1.2,1.94-1.21,3.82-2.38,5.7-3.55-.05-.27-.1-.54-.15-.81-4.09,1.95-5.65-1.33-8.64-3.88h7.12c.13-.29.26-.59.39-.88-.61-.26-1.21-.52-2.29-.98,1.8-.73,2.88-1.16,3.77-1.52-1.81-1.47-3.46-2.81-5.11-4.16.16-.35.31-.71.47-1.06,1.29.15,2.58.29,4.2.48-.31-.65-.54-1.14-.83-1.76.62-.31,1.24-.62,1.83-.92-.97-1.5-1.82-2.81-2.89-4.47h2.49c.69-3.52,1.33-6.76,1.98-10,.2.01.41.03.61.04.6,3.33,1.2,6.65,1.84,10.24.22-.03.99-.11,2.52-.29-1.1,1.78-1.87,3.02-2.6,4.2.38.66.85,1.48,1.53,2.67.81-.06,2.21-.17,3.61-.27.13.3.27.6.4.89-1.73,1.38-3.45,2.77-5.3,4.25.86.32,1.82.67,2.99,1.1-.43.62-.81,1.17-1.32,1.9h7.14c-2.6,2.64-4.57,4.97-8.68,4.65,3.36,2.3,5.91,4.93,10.59,3.23-2.02,4.37-4.94,5.11-8.77,4.79,3.39,3.19,7.19,2.74,11.07,2.39-2.39,3.53-6.97,5.44-11.18,4.15,1.27.83,2.55,1.66,3.95,2.57-.49.37-.91.7-1.82,1.39,1.95.14,3.44.25,5.12.37-.32,2.75,1.41,2.29,3.21,1.91,1.22-.26,2.49-.32,3.74-.46l.13.7c.64-.51,1.28-1.02,1.92-1.53-.23.2-.46.41-.69.61-.82-1.24-1.63-2.49-2.89-4.4,1.41-.16,2.55-.29,3.93-.45-.43-.69-.9-1.42-1.45-2.3,2.45-.78,2.22-2.19,1.59-3.6.84-2.79,1.68-5.59,2.73-9.08.69,3.08,1.23,5.49,1.84,8.26.06.01.65.13,1.41.28-.64,1.12-1.19,2.08-1.9,3.34,1.21.14,2.07.24,3.83.45-1.47.95-2.35,1.52-3.23,2.08.11.25.21.51.32.76,1.24.06,2.48.12,4.5.22-1.36,1.42-2.43,2.54-3.9,4.07,1.67.68,3.44,1.4,5.72,2.33-1.41.97-2.94,2.01-4.79,3.27,2.14.62,4.4,1.27,6.78,1.96-1.18,2.39-3.37,3.31-6.34,2.74-.06.29-.12.58-.18.88,2.75.76,5.51,1.51,8.8,2.42-1.7,1.04-3.42,2.09-5.5,3.36,3.81.59,7.75,1.19,11.69,1.8-14.71,2.44-29.78,1.41-44.38,4.94,5.52.71,11.04,1.41,16.55,2.12,0,.24-.02.48-.03.72-1.4,0-2.81.05-4.21,0-6.75-.31-13.5-.84-20.25-.87-2.44,0-4.88,1.2-7.33,1.82-3.17.81-6.34,1.58-9.51,2.37.03.29.05.59.08.88h17.15c0,.4.02.79.03,1.19-18.02.71-36.04,1.41-54.06,2.12-.05-.19-.09-.39-.14-.58,10.47-3.24,20.93-6.49,31.29-9.7ZM484.61,256.55c.06-.28.11-.56.17-.83,2.42-.76,4.85-1.52,7.27-2.28-.04-.34-.08-.67-.13-1.01-1.77.13-3.64-.06-5.29.47-2.88.91-5.62,2.25-8.85,1.07,1.66,1.1,3.32,2.21,4.98,3.31-.13.23-.26.46-.39.69,2.97.42,5.93.83,8.9,1.25,0-.12-.02-.23-.03-.35-2.21-.77-4.42-1.55-6.63-2.32ZM466.84,253.94c-5.13-.48-9.03,2.1-13.4,2.82.01.32.03.65.04.97h8.49c1.88-1.46,3.31-2.57,4.87-3.79ZM456.88,250.05c-.04-.27-.09-.54-.13-.82-1.54.21-3.08.42-4.74.64,1.73,2.78,3.3,1.35,4.87.18Z"/>
      <path d="M465.62,562.83c-6.89,2.59-6.91,2.59-6.96,10.21-.04,5.96,0,11.92,0,18.08h31.42c0-3.5,0-7,0-10.49,0-3.33.05-6.66.03-10-.03-4.81-.99-5.96-5.68-6.95-.4-.08-.77-.28-1.08-.91h22.52c.06.18.12.36.18.53-.73.21-1.44.46-2.18.62-3.52.77-4.7,1.96-4.81,5.59-.17,5.78-.15,11.56-.16,17.34-.02,8.43,0,16.86.01,25.28q0,7.85,6.93,10.72h-22.42c-.05-.15-.1-.29-.15-.44.72-.21,1.43-.53,2.17-.62,2.73-.35,4.4-1.84,4.44-4.59.1-7.91.03-15.82.03-23.92h-31.25c0,2.5,0,4.91,0,7.32.02,5.1-.06,10.19.1,15.29.14,4.42.94,5.19,5.22,6.03.53.1,1.05.3,1.52.95h-22.44c-.04-.15-.09-.3-.13-.45.64-.2,1.27-.45,1.92-.58,3.58-.7,4.82-1.87,4.84-5.49.07-15.48.07-30.97-.02-46.45-.02-4.03-1.09-5.09-5-6.01-.62-.15-1.21-.38-1.76-1.07h22.71Z"/>
      <path d="M533.66,540.4h-22.12c-.04-.2-.09-.4-.14-.6.74-.21,1.48-.52,2.24-.6,3.16-.3,4.38-2.18,4.38-5.16,0-15.97.06-31.94,0-47.9-.02-3.8-.92-4.61-4.79-5.42-.53-.11-1.05-.32-1.57-.96.68-.1,1.35-.28,2.03-.28,8.13-.01,16.29-.39,24.38.16,4.36.3,9.07,1.37,12.82,3.52,9.45,5.4,9.46,18.39.35,24.42-2.25,1.49-4.89,2.39-7.57,3.67,3.32,4.81,6.68,9.71,10.06,14.6,1.45,2.1,2.9,4.19,4.37,6.27,2.61,3.69,5.48,7.07,10.69,7.44-.14.35-.29.7-.43,1.05-4.92,0-9.84.1-14.74-.1-.73-.03-1.52-1.39-2.09-2.26-4.39-6.73-9.08-13.29-12.96-20.3-2.71-4.89-6.27-6.26-11.81-5.16,0,2.22,0,4.63,0,7.04,0,4.31-.02,8.62.02,12.93.04,4.78.92,5.79,5.56,6.66.49.09.95.32,1.42.49-.03.16-.06.33-.08.49ZM526.79,510.53c3.56,0,6.69.19,9.79-.05,3.41-.27,6.53-1.53,8.59-4.45,3.9-5.51,4.14-11.48,1.69-17.59-2.31-5.74-7.24-7.28-12.85-7.47-1.76-.06-3.56-.16-5.26.16-.75.14-1.87,1.27-1.88,1.96-.13,9.08-.08,18.15-.08,27.44Z"/>
      <path d="M615.52,541.92c-19.02.03-32.67-12.89-32.74-30.99-.08-19.1,13.41-32.81,32.31-32.83,19.17-.02,32.75,13.14,32.69,31.68-.07,18.81-13.42,32.12-32.25,32.15ZM638.52,510.89c-.8-7.79-1.82-15.22-5.98-21.84-8.32-13.23-28.59-12.78-35.52,1.11-6.41,12.85-6.14,26.22.03,39.11,4.04,8.44,11.47,11.6,20.67,10.92,8.57-.64,14.34-5.27,17.1-13.1,1.83-5.19,2.51-10.79,3.7-16.2Z"/>
      <path d="M559.65,561.21c14.27,0,25.98,7.87,30.32,20.35,4.65,13.38.63,28.43-10.28,36.51-10.79,7.99-22.85,8.53-34.88,3.61-11.69-4.78-17.4-14.36-18.38-26.82-1.48-18.84,13.17-33.66,33.21-33.65ZM582.79,594c-.27-.07-.54-.14-.8-.21,0-6.74-1.04-13.3-4.12-19.36-4.13-8.14-10.83-12.27-19.98-11.79-8.98.47-15.42,5.03-18.59,13.46-4.44,11.82-4.11,23.73,1.21,35.18,3.79,8.17,10.7,11.89,19.73,11.71,8.94-.17,15.26-4.45,18.39-12.62,2-5.22,2.82-10.89,4.17-16.37Z"/>
      <path d="M793.28,562.86c.48,4.28.96,8.61,1.44,12.93l-.85.29c-.39-.86-.83-1.7-1.16-2.58-2.39-6.38-6.34-9.22-13.11-9.29-3.99-.04-7.98,0-12.13,0v26.83c3.54,0,7.03.25,10.47-.06,4.39-.41,5.17-4.18,6.57-7.57v17.63c-1.19-3.25-2.06-7-6.36-7.5-3.46-.41-6.96-.39-10.66-.57,0,8.46-.08,16.47.05,24.47.04,2.32,1.46,3.86,3.96,3.87,4.4.02,8.83.24,13.19-.17,5.46-.51,8.53-4.35,10.76-8.98.41-.85.73-1.73,1.1-2.6.28.05.57.1.85.14-.41,4.35-.82,8.69-1.25,13.27h-44.84c1.02-.62,1.28-.88,1.58-.95,5.07-1.2,5.65-1.89,5.66-7.16.02-14.02.01-28.03.02-42.05,0-7.34-.02-7.37-6.5-9.95h41.24Z"/>
      <path d="M656.05,562.74h16.49c-.12.4-.13.7-.22.73-5.3,1.59-6.61,3.28-6.64,9.08-.06,9.8,0,19.6-.02,29.4-.03,13.18-7.17,21.34-20.28,22.33-4.49.34-9.25-.25-13.6-1.46-8.66-2.4-13.84-9.96-13.91-19.28-.07-9.7-.02-19.4,0-29.1q.02-8.12-7.12-11.63h23c-.16.4-.18.53-.23.55q-6.79,2.26-6.8,9.69c0,9.9-.06,19.8,0,29.69.04,7.03,1.85,13.36,8.64,16.8,6.92,3.5,13.87,2.91,20.45-1.11,4.72-2.89,6.93-7.5,7.35-12.77.44-5.65.29-11.35.35-17.03.05-4.7.02-9.41,0-14.11-.02-7.76-.66-8.72-7.47-11.79Z"/>
      <path d="M712.43,479.67h16.52c-.2.36-.27.73-.45.79-5.3,1.76-6.29,3.03-6.34,8.95-.07,9.41-.3,18.83.04,28.22.63,17.54-11.46,26.49-28.6,23.91-13.22-1.99-19.44-9.59-19.41-22.98.02-10.1-.02-20.19.07-30.29.04-5-.82-7.61-6.04-7.7-.23,0-.45-.28-1.25-.82h23.85c-1.24.5-1.76.8-2.31.92-3.91.81-5.14,1.81-5.18,5.88-.14,12.25-.37,24.51.13,36.74.39,9.65,7.02,15.51,16.42,15.76,10.57.27,18.52-5.55,19.66-15.02.67-5.61.47-11.34.54-17.01.08-5.68.02-11.37,0-17.05-.03-6.44-.95-7.63-7.14-9.42-.27-.08-.52-.21-.79-.32l.3-.56Z"/>
      <path d="M693.52,606.11c.78,2.01,1.51,4.04,2.35,6.03,2.9,6.85,8.8,10.87,15.71,10.75,5.97-.1,10.52-3.36,12.23-8.76,1.57-4.93-.14-9.92-5-13.3-3.04-2.12-6.42-3.73-9.66-5.57-2.47-1.4-5.03-2.66-7.39-4.23-6.69-4.46-9.24-10.59-7.52-17.61,1.57-6.38,7.37-11.11,14.8-11.99,6.2-.73,12.06.85,17.82,2.87.55.19,1.22,1.06,1.24,1.63.11,3.67.06,7.34-.52,11.23-.55-1.34-1.09-2.69-1.64-4.03-2.11-5.16-5.31-9.11-11.13-10.26-5.24-1.03-10.86,1.39-12.83,5.54-2.28,4.81-.97,10.33,3.87,13.72,3.91,2.74,8.27,4.83,12.38,7.29,2.51,1.5,5.09,2.97,7.37,4.78,5.14,4.06,7.11,9.48,5.85,15.91-1.26,6.43-5.32,10.55-11.35,12.76-6.95,2.55-13.88,1.64-20.79-.33-6.14-1.75-6.18-1.72-6.39-7.97-.09-2.76-.02-5.53-.02-8.29.2-.06.39-.11.59-.17Z"/>
      <path d="M769.06,481.04c-5.19.07-10.47-1.14-14.36,2.05-3.44,2.82-5.79,6.98-8.74,10.68.3-4.5.62-9.16.95-14.07,1.11-.09,2.05-.22,2.99-.22,15.87-.01,31.74.02,47.6-.04,1.81,0,2.65.41,2.74,2.38.18,4.03.59,8.05.52,12.2-2.36-4.64-3.88-10.1-9.34-11.71-4.12-1.22-8.61-1.19-13.54-1.8,0,1.88,0,3,0,4.12,0,15.57,0,31.15.01,46.72,0,6.33.36,6.75,6.66,8.11.27.06.51.23.75.79h-23.6c-.03-.16-.06-.33-.09-.49.77-.19,1.54-.4,2.32-.56,4.12-.86,5.11-2.03,5.12-6.49.04-11.56,0-23.12,0-34.68,0-5.56,0-11.13,0-17.02Z"/>
      <path d="M469.82,481.12c0,1.92,0,3.56,0,5.2.02,14.31-.03,28.62.1,42.93.07,7.15-1.32,8.74,7.29,11.05h-23.36l-.08-.42c.49-.18.97-.42,1.48-.53,5.07-1.17,5.65-1.76,5.66-6.87.06-16.37.05-32.74.06-49.1,0-.66-.11-1.32-.17-1.99-10.93-1.68-19.2,1.04-22.06,13.4-.33-.29-.66-.58-.99-.87.39-4.68.78-9.36,1.19-14.25h53.28c.34,4.8.68,9.51,1.01,14.21-.25.09-.49.18-.74.27-2.08-4.2-3.34-9.04-7.93-11.36-4.49-2.27-9.31-1.86-14.72-1.66Z"/>
      <path d="M604.7,648.85c-1.14.14-2.29.39-3.43.39-44.39.03-88.77.04-133.16.05-2.16,0-4.31.05-6.47-.04-.55-.02-1.07-.53-1.6-.82.56-.35,1.1-.77,1.7-1.03.33-.14.77-.03,1.16-.03,46.25,0,92.5-.01,138.74,0,1.01,0,2.01.17,3.02.26,0,.4.02.81.03,1.21Z"/>
      <path d="M770.67,648.85c-1.14.14-2.29.39-3.43.39-44.39.03-88.77.04-133.16.05-2.16,0-4.31.05-6.47-.04-.55-.02-1.07-.53-1.6-.82.56-.35,1.1-.77,1.7-1.03.33-.14.77-.03,1.16-.03,46.25,0,92.5-.01,138.74,0,1.01,0,2.01.17,3.02.26,0,.4.02.81.03,1.21Z"/>
      <path d="M504.89,447.77c-13.91,0-27.81,0-41.72,0-.78,0-1.59.07-2.34-.08-.33-.07-.79-.63-.78-.95,0-.33.48-.86.82-.93.75-.16,1.56-.1,2.34-.1,27.91,0,55.82-.01,83.73-.02.59,0,1.22-.11,1.75.07.44.15.76.66,1.14,1.01-.39.32-.73.82-1.17.93-.65.16-1.36.06-2.05.06-13.91,0-27.81,0-41.72,0h0Z"/>
      <path d="M773.7,447.11c-.8.21-1.59.6-2.39.6-28.9.04-57.8.04-86.71,0-.74,0-1.47-.54-2.21-.82.84-.39,1.68-1.13,2.52-1.13,21.16-.07,42.32-.07,63.48-.07,7.35,0,14.7.04,22.04.08,1.03,0,2.06.11,3.09.18.05.39.11.77.16,1.16Z"/>
      <path d="M559.52,392.77c10.8-1.69,72.06-1.61,81.44.11-5.83,2.24-71.1,2.16-81.44-.11Z"/>
      <path d="M607.22,399.99c6.87-1.62,66.26-1.35,79.93.36-13.23,2.25-73.12,1.98-79.93-.36Z"/>
      <path d="M626.06,456.99h-5.54c.32-3.16.64-6.33.99-9.82h-10.42c.16,3.18.33,6.42.5,9.76h-4.1c.14-3.42.53-6.89.35-10.34-.18-3.44,1.32-7.18-1.54-10.32h5.47c-.27,3.09-.53,6.16-.82,9.5h10.4c-.17-3.08-.35-6.13-.52-9.31h4.74c-1.85,2.98-1.72,18.1.5,20.54Z"/>
      <path d="M749.58,393.95c-5.94,2.05-62.91,2.16-75.17.14,5.4-1.54,65.6-1.65,75.17-.14Z"/>
      <path d="M559.33,716.32c-9.79,0-19.58,0-29.37,0-.78,0-1.58.05-2.34-.09-.38-.07-.68-.53-1.01-.82.35-.37.63-.95,1.05-1.08.63-.19,1.35-.09,2.04-.09,19.68,0,39.35,0,59.03,0,.78,0,1.58-.05,2.34.1.34.07.81.61.8.92,0,.32-.48.83-.83.91-.75.16-1.56.12-2.34.12-9.79,0-19.58,0-29.37,0v.02Z"/>
      <path d="M671.24,716.32c-9.79,0-19.58,0-29.37,0-.78,0-1.58.05-2.34-.09-.38-.07-.68-.53-1.01-.82.35-.37.63-.95,1.05-1.08.63-.19,1.35-.09,2.04-.09,19.68,0,39.35,0,59.03,0,.78,0,1.58-.05,2.34.1.34.07.81.61.8.92,0,.32-.48.83-.83.91-.75.16-1.56.12-2.34.12-9.79,0-19.58,0-29.37,0v.02Z"/>
      <path d="M660.65,452.87c-.17,1.24-.35,2.48-.55,3.95h-13.93c1.21-6.71,1.01-13.54.14-20.46h12.64c.2,1.4.38,2.64.56,3.87-2.08-3.68-5.45-3.38-9.09-3.09v9.33c2.05-.64,3.82-1.2,5.58-1.75v3.46c-1.66-.52-3.46-1.08-5.77-1.8,0,3.13-.16,5.55.1,7.93.08.69,1.31,1.68,2.11,1.78,3.21.41,6.32.21,8.2-3.24Z"/>
      <path d="M487.35,396.65c19.65-1.55,39.33-1.61,59.02-.11-19.65,1.98-39.32,1.68-59.02.11Z"/>
      <path d="M577.25,456.93c.36-1.42.94-2.71.97-4.02.11-5.17.05-10.35.05-15.46-4.31-.83-5.17-.4-7.35,3.45-.44-4.54-.44-4.59,3.67-4.68,3.43-.08,6.86-.06,10.28-.02,4.23.06,4.23.09,3.84,5.12-1.35-3.81-3.77-4.82-7.05-4.05-1.21,6.93-.46,17.72,1.49,19.65h-5.9Z"/>
      <path d="M524.81,404.43h48.92c-4.72,2.28-36.26,2.42-48.83.81-.03-.27-.06-.54-.09-.81Z"/>
      <path d="M707.38,407.43h-48.12c3.6-2.4,43.97-2.32,48.12,0Z"/>
      <path d="M645,411.15h-43.97c3.17-1.88,33.76-2.29,43.97,0Z"/>
      <path d="M615.77,653.75c-1.81-1.73-3.71-3.55-5.63-5.39,2.07-1.85,4.07-3.65,6.2-5.56,1.39,1.5,3.23,3.47,5.3,5.69-1.81,1.63-3.83,3.44-5.87,5.27Z"/>
      <path d="M658.93,387.59h-40.98c0-.38,0-.75,0-1.13h40.95c0,.38.02.75.03,1.13Z"/>
      <path d="M620.5,715.16c.08,2.55-1.76,4.5-4.29,4.56-2.46.05-4.54-1.9-4.61-4.32-.07-2.4,1.96-4.56,4.34-4.63,2.35-.07,4.49,1.99,4.56,4.4Z"/>
      <path d="M588.25,404.73h36.11c0,.3,0,.6,0,.9h-36.09c0-.3-.02-.6-.03-.9Z"/>
      <path d="M779.94,400.59h-28.2c0-.3,0-.59,0-.89h28.2v.89Z"/>
      <path d="M588.8,400.23h-26.26c0-.26,0-.52,0-.78h26.17c.03.26.06.52.09.78Z"/>
      <path d="M700.74,387.31h-26.27c0-.25,0-.49,0-.74h26.27c0,.25,0,.49,0,.74Z"/>
      <path d="M736.09,404.16h-16.54v-.63h16.54c0,.21,0,.42,0,.63Z"/>
      <path d="M445.05,400.49c-.82.04-1.64.07-3.43.15,1.22-1.74,1.95-2.86,2.79-3.87.12-.14,1.22.21,1.22.34,0,.96-.14,1.92-.26,2.9-.12.16-.23.32-.33.48Z"/>
      <path d="M656.21,275.56c-26.53,1.86-52.8,5.46-78.68,11.75,25.61-8.02,52.05-10.52,78.68-11.75Z"/>
      <path d="M578.5,269.19c2.42-1.18,4.21-2.1,6.05-2.9.24-.1.97.36,1.09.7.16.46.13,1.15-.12,1.56-.88,1.51-1.74,3.1-2.91,4.36-.67.72-2.19,1.45-2.91,1.15-1.6-.66-4.03-1.85-4.15-3.02-.25-2.47,1.98-2.21,2.96-1.86Z"/>
      <path d="M629.99,261.23c1.42-1.03,2.65-1.98,3.99-2.76.1-.06,1.39,1.21,1.35,1.81-.08,1.33-.29,3.08-1.15,3.8-.59.48-2.39-.52-4.18-1-.83.6-2.4,2.44-3.91.04-.45-.71-.13-2.62.53-3.19,2.15-1.89,2.83.52,3.37,1.3Z"/>
      <path d="M613.01,265.45c1.84-2.25,3.55-4.34,5.55-6.81,2.09,2.87,2.42,4.88.2,6.59-1.64,1.26-3.4,3.51-5.75.21Z"/>
      <path d="M604.78,265.14c.59,2.63-.88,3.61-3.18,3.69-1.8.06-2.74-1.4-2.14-2.69.74-1.6,2.1-3.5,3.61-4,1.55-.51,2.42,1.2,1.72,3Z"/>
      <path d="M556.63,281.95c-2.35-3.62.85-8.15,6.29-8.9-.95,3.88-3.64,6.19-6.29,8.9Z"/>
      <path d="M572.73,273.1c-1.21,1.37-2.1,3-3.47,3.71-.78.4-2.34-.68-3.54-1.13-.15-.06-.34-.3-.34-.46.02-.7-.13-1.87.2-2.03,1.82-.91,3.75-1.63,5.7-2.25.18-.06.74,1.09,1.44,2.15Z"/>
      <path d="M597.85,266.52c-2.16,1.47-3.5,3.08-4.83,3.06-1.03-.01-2.65-1.91-2.92-3.2-.43-2.01,1.6-2.61,3.1-2.37,1.32.21,2.51,1.3,4.65,2.51Z"/>
      <path d="M679.67,254.87c.96.6,3.04,6.33,2.18,7.17-.84.82-2.23,1.08-3.37,1.58-.41-.98-1.03-1.93-1.16-2.94-.08-.66.59-1.4.88-2.11.48-1.15.92-2.32,1.46-3.69Z"/>
      <path d="M552.93,281.98c-2.14,1.21-3.46,2.22-4.93,2.61-.42.11-1.71-1.53-1.9-2.5-.33-1.65,1.99-4.12,3.28-3.58,1.12.47,1.89,1.78,3.56,3.47Z"/>
      <path d="M626.29,267.72c-1.21.55-2.41,1.11-3.82,1.75.05.38.43,1.25.16,1.77-.41.78-1.2,1.64-1.99,1.85-.62.16-1.88-.44-2.13-1.02-.32-.72-.24-2.08.25-2.63,1.15-1.28,2.55-2.47,4.07-3.24.82-.42,2.12.11,3.21.2.09.44.17.87.26,1.31Z"/>
      <path d="M543.53,281.71c-.77,2.17-1.44,4.38-2.36,6.49-.22.51-1.22.82-1.91.91-.21.03-.88-1.08-.77-1.54.42-1.84.87-3.73,1.71-5.4.34-.67,1.68-.85,2.56-1.25.26.26.52.53.78.79Z"/>
      <path d="M656.52,253.68c-1.28.8-1.97,1.56-2.74,1.65-3.36.4-1.55-3.46-3.44-4.35.63-.75,1.26-1.49,1.89-2.24,1.31,1.51,2.61,3.02,4.28,4.95Z"/>
      <path d="M659.81,256.83c0,1.92.19,2.99-.06,3.94-.23.88-.79,2.16-1.44,2.32-.73.18-2.37-.6-2.46-1.15-.22-1.31-.14-2.99.55-4.03.5-.76,2.18-.73,3.4-1.07Z"/>
      <path d="M579.26,279.4c-1.57,1.47-2.55,2.58-3.75,3.33-.22.14-2.06-1.47-1.94-1.75.65-1.54,1.69-2.92,2.59-4.36.81.73,1.63,1.46,3.1,2.78Z"/>
      <path d="M664.92,267.88c-1.45,1.35-2.43,2.56-3.69,3.23-.36.19-1.56-1.21-2.38-1.88,1.18-1.4,2.37-2.79,3.55-4.19.66.75,1.32,1.49,2.52,2.84Z"/>
      <path d="M625.04,255.95c-.52,1.47-1,2.85-1.62,4.62-.13-1.17-.22-1.95-.33-2.88-.53-.05-1.12-.01-1.66-.16-.94-.26-1.85-.62-2.77-.94.48-.77.8-1.96,1.47-2.21.93-.34,2.2-.18,3.18.16.82.29,1.44,1.16,1.73,1.41Z"/>
      <path d="M707.36,263.42c-.71-.45-1.32-.85-1.93-1.24.01-.31.03-.62.04-.93.89,0,2.03-.36,2.64.06,3.01,2.06,3.21,3.74,1.05,6.84-2.56-.84-2.79-2.59-1.79-4.74Z"/>
      <path d="M685.8,261.15c1.57-1.44,2.47-2.58,3.65-3.14.37-.18,2.24,1.64,2.14,1.84-.72,1.32-1.72,2.52-2.83,3.54-.13.12-1.5-1.12-2.95-2.23Z"/>
      <path d="M594.05,279.18c-1.25-1.66-2.59-2.67-2.51-3.56.08-.93,1.72-2.56,2.34-2.42,1.12.25,2.44,1.45,2.81,2.55.21.61-1.33,1.81-2.64,3.43Z"/>
      <path d="M667.41,249.42c1.65.22,3.72.12,3.85.58.44,1.5,2.97,3.57.3,4.71-4.08,1.75-2.98-2.33-4.16-5.29Z"/>
      <path d="M634.55,266.69c1.48-.08,2.99-.32,4.43-.09.25.04.54,2.2.15,3.09-.3.67-1.98,1.45-2.47,1.17-1.11-.63-1.86-1.88-2.76-2.88l.66-1.29Z"/>
      <path d="M520.29,294.81c.47-3,2.21-4.83,4.05-4.17.73.26,1.57,2,1.37,2.82-.88,3.48-3.35,1.04-5.42,1.35Z"/>
      <path d="M610.81,255.35c1.51-.02,3.71-3.6,5.08-.39,1.09,2.56-1.02,4.62-4.12,3.79-.57-.15-.64-2.16-.96-3.41Z"/>
      <path d="M612.66,269.3c1.09,1.71,2.18,2.71,2.28,3.81.06.68-1.5,2.19-2.14,2.08-1.13-.18-2.12-1.3-3.16-2.03.84-1.07,1.68-2.14,3.02-3.87Z"/>
      <path d="M588.54,260.09c.4,3.2-.4,4.43-3.13,4.35-.91-.03-2.51-.74-2.57-1.26-.19-1.84,2.83-3.37,5.69-3.09Z"/>
      <path d="M579.75,265.17c-1.99,1.19-3.45,2.15-5.01,2.9-.32.15-1.48-.53-1.46-.74.13-1.14.22-2.47.87-3.31.7-.9,1.95-1.69,3.13-.14.35.46,1.12.61,2.47,1.29Z"/>
      <path d="M511.78,302.82c-2.08,1.26-3.57,2.28-5.19,3.05-.24.11-1.34-.86-1.51-1.48-.29-1.06,2.81-3.75,4.22-3.58.63.08,1.18.92,2.48,2.02Z"/>
      <path d="M681.3,268.03c.51-.92.86-1.95,1.55-2.64.35-.36,1.31-.11,1.99-.14-.14,2.01-.25,4.03-.48,6.03-.01.1-1.49.31-1.64.07-.59-.95-.91-2.05-1.42-3.31Z"/>
      <path d="M654.06,262.77c1,1.46,2.07,2.44,1.89,2.85-.7,1.56-1.81,2.93-2.77,4.37-.56-1.12-1.63-2.29-1.54-3.36.1-1.14,1.3-2.18,2.42-3.86Z"/>
      <path d="M652.75,257.66c-1.41,1.64-2.46,2.87-3.51,4.1-.66-.95-2.03-2.1-1.83-2.79.34-1.17,1.58-2.19,2.66-2.96.26-.19,1.39.83,2.68,1.66Z"/>
      <path d="M609.08,267.02c-.59-1.49-1.32-2.95-1.71-4.5-.13-.54.46-1.74.91-1.85,1.13-.27,2.36-.09,3.91-.09-.73,2.33-3,3.44-1.7,5.66.27.46-.39,1.48-.63,2.23-.26-.49-.52-.97-.79-1.46Z"/>
      <path d="M536.07,285.07c.04.77.23,1.56.08,2.3-.2,1.01-.54,2.04-1.03,2.94-.44.79-1.1,1.51-1.83,2.04-.24.18-1.43-.34-1.43-.54,0-.88.08-1.86.5-2.61.82-1.48,1.89-2.83,2.85-4.23.29.03.58.07.86.1Z"/>
      <path d="M645.68,267.22c.74-.96,1.29-1.67,1.83-2.37.58.6,1.16,1.21,1.74,1.82.06.06.07.18.07.28.1,1.22.28,2.45.22,3.66,0,.19-1.55.61-1.68.42-.81-1.13-1.41-2.4-2.18-3.81Z"/>
      <path d="M699.34,259.47c1.32,1.26,2.94,2.16,2.86,2.87-.12,1.12-1.38,2.11-2.16,3.15-.82-1.06-1.9-2.03-2.36-3.23-.2-.53.88-1.54,1.66-2.79Z"/>
      <path d="M588.76,277.85c-1.46,1.23-2.3,2.34-3.36,2.64-.5.14-2.19-1.67-2.04-1.95.58-1.17,1.57-2.22,2.63-3,.19-.14,1.46,1.2,2.77,2.31Z"/>
      <path d="M564.9,284.41c-1.8,1.33-2.77,2.3-3.94,2.76-.33.13-1.91-1.57-1.77-1.86.55-1.13,1.44-2.25,2.49-2.9.36-.22,1.58.94,3.22,2Z"/>
      <path d="M637.74,259.25c-1.11-2.2-.53-4.81,1.3-5.59.56-.24,1.96.16,2.1.56.29.84.35,2.16-.14,2.79-.73.93-2.01,1.42-3.26,2.24Z"/>
      <path d="M645.85,260.97c-1.38,1.34-2.3,2.22-3.21,3.11-.66-.73-2.02-1.76-1.86-2.14.56-1.29,1.65-2.34,2.53-3.49.67.67,1.34,1.33,2.53,2.52Z"/>
      <path d="M673.47,261.08c-1.81,1.17-3.01,2.08-4.35,2.67-.22.1-1.06-1.19-1.61-1.84,1.19-.97,2.34-2,3.63-2.82.18-.11,1.05.87,2.33,1.99Z"/>
      <path d="M691.61,256.28c2.05-1.14,3.08-3.33,5.24-1.94.51.33.64,2.35.16,2.92-1.98,2.31-3.19-.31-5.4-.98Z"/>
      <path d="M515.15,296.56c1.35,2.11,1.35,3.97-.89,5.23-.4.23-1.96-.53-2.09-1.05-.56-2.31.71-3.6,2.97-4.18Z"/>
      <path d="M667.46,259.14c-1.23,1.19-2.04,1.99-2.86,2.78-.62-1.15-1.51-2.26-1.72-3.48-.08-.5,1.46-1.87,2-1.74.85.2,1.49,1.33,2.57,2.44Z"/>
      <path d="M465.26,347.95c-.39-1.46-.97-2.5-.7-2.84,1.14-1.39,2.49-2.64,3.91-3.75.19-.15,1.21.74,1.84,1.15-1.5,1.62-3.01,3.24-5.05,5.44Z"/>
      <path d="M692.66,270.89c-1.14.9-2.28,2.07-2.49,1.92-.9-.63-1.97-1.59-2.12-2.56-.1-.67,1.22-1.55,1.9-2.33.76.84,1.52,1.67,2.7,2.96Z"/>
      <path d="M605.91,274.91c-1.55,1.77-2.75,3.35-4.65,1.8-.52-.43-.59-2.42-.09-2.89,1.8-1.71,3.01.09,4.74,1.09Z"/>
      <path d="M631.52,271.15c-1.6,1.04-2.52,1.94-3.58,2.18-.45.1-1.85-1.51-1.72-1.76.53-.99,1.36-2.05,2.35-2.47.45-.2,1.51,1.01,2.95,2.06Z"/>
      <path d="M521.74,303.4c-1.5,1.06-2.47,1.94-3.6,2.39-.29.12-1.72-1.55-1.62-1.7.7-1.02,1.58-2.01,2.63-2.66.26-.16,1.32.97,2.59,1.96Z"/>
      <path d="M538.7,290.83c.97,1.26,2.08,2.33,1.92,2.57-.67,1.01-1.7,1.78-2.6,2.63-.56-.67-1.7-1.5-1.57-1.98.28-1.01,1.22-1.83,2.25-3.21Z"/>
      <path d="M546.34,293.61c-1.05-1.38-2.23-2.35-2.05-2.83.36-1,1.43-1.74,2.22-2.59.67.7,1.89,1.41,1.87,2.09-.03.9-1.02,1.78-2.03,3.34Z"/>
      <path d="M720.16,258.43c.67,0,1.46-.2,2,.07.82.41,1.48,1.16,2.21,1.76-.85.7-1.71,1.39-2.56,2.09-.53-.74-1.16-1.44-1.54-2.25-.23-.48-.05-1.15-.06-1.73,0,0-.06.06-.06.06Z"/>
      <path d="M705.54,259.84c-1.04-1.16-2.18-2.04-2.04-2.36.42-.97,1.34-1.72,2.07-2.55.73.68,1.99,1.32,2.03,2.04.04.76-1.08,1.58-2.06,2.87Z"/>
      <path d="M553.44,285c.83,1.39,1.67,2.33,1.49,2.59-.74,1.11-1.79,2.02-2.72,3-.46-.52-1.42-1.26-1.3-1.52.53-1.21,1.37-2.28,2.52-4.07Z"/>
      <path d="M634.25,249.58c1.16.19,2.32.37,3.48.56-.12.62-.04,1.62-.38,1.78-1.23.6-2.59.93-4.64,1.6.81-2,1.23-3.02,1.65-4.05,0,0-.11.1-.11.1Z"/>
      <path d="M505.65,307.97c.9,1.35,1.77,2.12,1.63,2.56-.35,1.07-1.17,1.99-1.8,2.97-.59-.61-1.71-1.29-1.65-1.82.13-1.04.92-2,1.81-3.72Z"/>
      <path d="M479.64,328.5c.85,1.38,1.86,2.38,1.66,2.82-.46,1.01-1.52,1.74-2.34,2.59-.46-.75-1.38-1.56-1.28-2.22.15-.94,1.04-1.77,1.96-3.19Z"/>
      <path d="M534.34,297.17c-1.04.68-2.08,1.36-3.12,2.05-.37-.58-1.19-1.39-1.04-1.68.57-1.09,1.31-2.28,2.32-2.88.51-.3,1.72.6,2.62.96-.26.52-.52,1.04-.78,1.56Z"/>
      <path d="M491.95,322.56c-1.2.81-2.02,1.61-2.99,1.9-.32.1-1.59-1.41-1.46-1.66.53-1,1.45-1.79,2.23-2.65.61.66,1.22,1.33,2.22,2.42Z"/>
      <path d="M703.4,269.26c.99,1.43,2.07,2.32,1.95,3-.14.77-1.28,1.64-2.14,1.88-.43.12-1.82-1.13-1.74-1.61.15-.95,1-1.79,1.93-3.27Z"/>
      <path d="M701.11,278.48c-5.27-.49-10.54-.99-15.8-1.48.02-.23.04-.46.06-.69,5.28.47,10.56.94,15.85,1.42-.03.25-.07.5-.1.75Z"/>
      <path d="M671.39,257.02c1.28-1.19,2.15-3.28,4.56-2.08.4.2.46,1.07.68,1.63-1.65.49-3.31.99-4.96,1.48-.09-.35-.19-.69-.28-1.04Z"/>
      <path d="M679.53,270.05c-1.26,1.01-2.01,1.93-2.95,2.21-.37.11-1.78-1.41-1.64-1.83.29-.9,1.18-1.82,2.06-2.23.37-.17,1.33.94,2.53,1.85Z"/>
      <path d="M501.25,311.23c-2.24,1.06-3.84,1.82-5.64,2.67.05-3.91,1.21-4.53,5.64-2.67Z"/>
      <path d="M646.8,249.9c.79,1.24,1.73,2.27,1.56,2.51-.65.91-1.62,1.61-2.58,2.23-.1.06-1.38-1.16-1.27-1.4.48-1.04,1.28-1.93,2.29-3.34Z"/>
      <path d="M628.33,258.17c-.7-1.46-1.42-2.26-1.26-2.79.27-.87,1.11-1.56,1.71-2.33.64.64,1.88,1.39,1.79,1.9-.17.93-1.13,1.72-2.25,3.22Z"/>
      <path d="M711.74,266.9c1.46-1.25,2.52-2.16,3.58-3.08.42.76,1.38,1.74,1.17,2.24-.66,1.58-2,2.23-4.75.84Z"/>
      <path d="M699.74,270.77c-1.22,1.06-2.02,1.75-2.81,2.44-.53-.71-1.53-1.47-1.47-2.11.08-.8.93-1.79,1.69-2.15.38-.17,1.33.9,2.58,1.82Z"/>
      <path d="M455.27,349.53v4.6c-.68-.13-1.94-.24-1.94-.38-.04-1.48.13-2.96.24-4.45l1.7.23Z"/>
      <path d="M525.85,302.53c-.85-.99-1.87-1.74-1.75-2.11.3-.91,1.13-1.64,1.74-2.44.66.58,1.89,1.21,1.84,1.72-.08.85-.99,1.62-1.83,2.83Z"/>
      <path d="M554.35,275.8c-.7-1.08-1.49-1.98-1.36-2.14.73-.92,1.65-1.69,2.6-2.37.07-.05,1.43,1.28,1.33,1.45-.6.97-1.44,1.79-2.57,3.07Z"/>
      <path d="M502.19,308.94c-1.07-1.25-1.63-1.9-2.54-2.96,1.16-.74,2.12-1.41,3.16-1.94.11-.06,1.02.85.94,1.14-.32,1.15-.89,2.22-1.56,3.76Z"/>
      <path d="M568.21,265.67c.92,1.21,1.96,2.08,1.81,2.47-.33.84-1.19,1.74-2.02,2-.48.15-1.99-1.14-1.9-1.37.34-.94,1.12-1.73,2.12-3.1Z"/>
      <path d="M513.89,293.64c1.23-1.72,2.42-3.55,5.8-.98-2.15.81-3.78,1.42-5.41,2.03-.13-.35-.26-.7-.39-1.05Z"/>
      <path d="M722.09,269.34c-3.45-2.18-3.31-3.3.83-5.56-.31,2.11-.55,3.7-.83,5.56Z"/>
      <path d="M568.77,279.99c.68,1.38,1.49,2.3,1.28,2.75-.38.84-1.36,1.4-2.08,2.08-.45-.52-1.37-1.2-1.26-1.52.34-.98,1.09-1.82,2.06-3.31Z"/>
      <path d="M695.74,264.38c-.85.66-1.7,1.32-2.55,1.99-.41-.67-1.33-1.67-1.14-1.95.54-.82,1.44-1.56,2.36-1.92.49-.19,1.31.45,1.99.72-.22.39-.43.78-.65,1.16Z"/>
      <path d="M668.89,272.18c-.75-1.25-1.51-1.99-1.36-2.37.36-.89,1.15-1.6,1.76-2.38.47.51,1.39,1.11,1.31,1.51-.19.91-.86,1.72-1.71,3.24Z"/>
      <path d="M493.35,316.24c-1.97.81-3.52,1.46-5.1,2.02-.04.02-.64-1.32-.61-1.34,1.36-.75,2.75-1.48,4.19-2.05.2-.08.72.63,1.51,1.37Z"/>
      <path d="M498.55,317.42c.47-1.31.93-2.62,1.4-3.93.61.39,1.78.96,1.72,1.14-.38,1.19-1.02,2.3-1.57,3.44-.52-.22-1.03-.44-1.55-.66Z"/>
      <path d="M712.75,271.56c.67,1.24,1.51,2.11,1.32,2.58-.34.85-1.29,1.46-1.99,2.17-.48-.64-1.44-1.39-1.33-1.9.19-.87,1.06-1.59,1.99-2.85Z"/>
      <path d="M686.63,254.17c-1.63.77-2.48,1.38-3.4,1.51-.44.06-1.01-.8-1.52-1.24.71-.65,1.33-1.58,2.16-1.84.5-.16,1.33.72,2.75,1.57Z"/>
      <path d="M460.66,353.38c-.78-1.32-1.54-2.02-1.46-2.61.1-.74.88-1.38,1.37-2.07.61.48,1.76,1.02,1.71,1.43-.1.89-.8,1.71-1.63,3.25Z"/>
      <path d="M641.64,273.54c-.53-.66-1.05-1.33-2.12-2.67,1.5-.3,2.53-.51,3.56-.72-.12,1.14-.24,2.28-.36,3.42-.36-.01-.73-.02-1.09-.03Z"/>
      <path d="M474.5,334.48c.7.85,1.5,1.59,1.4,1.75-.52.82-1.24,1.52-1.99,2.16-.05.05-1.26-.93-1.19-1.1.38-.88,1.01-1.66,1.78-2.81Z"/>
      <path d="M494.37,321.87c-.58-1-1.33-1.78-1.17-2.14.35-.76,1.12-1.4,1.86-1.83.17-.1,1.48,1.14,1.37,1.36-.37.82-1.11,1.47-2.07,2.6Z"/>
      <path d="M673.56,285.65c-1.3.59-2.6,1.17-4.82,2.17.51-1.54.59-2.67.99-2.8,1.12-.37,2.38-.33,3.58-.45.08.36.16.72.24,1.08Z"/>
      <path d="M671.74,267.09c.56-.95,1.02-1.99,1.76-2.78.17-.18,1.27.51,1.94.8-.82.96-1.65,1.92-2.47,2.89-.41-.3-.81-.6-1.22-.9Z"/>
      <path d="M618.29,292.72c-1.16.7-1.9,1.42-2.7,1.5-.38.04-1.32-1.21-1.23-1.76.1-.6,1.09-1.47,1.67-1.45.64.01,1.26.9,2.26,1.71Z"/>
      <path d="M645.8,287.75c-.72-1.12-1.54-1.91-1.38-2.24.36-.75,1.19-1.27,1.83-1.89.38.55,1.12,1.15,1.06,1.65-.08.69-.76,1.32-1.52,2.48Z"/>
      <path d="M560.29,273.12c-.76-.88-1.62-1.73-1.55-1.81.59-.71,1.29-1.4,2.1-1.82.18-.09,1.41,1.07,1.31,1.35-.26.73-.99,1.29-1.85,2.27Z"/>
      <path d="M454.64,358.31c.77-1.07,1.53-2.15,2.3-3.22.48.38.97.76,1.45,1.15-.83,1-1.67,2-2.5,3.01-.42-.31-.83-.62-1.25-.93Z"/>
      <path d="M519.56,300.1c-.69-1.02-1.51-1.72-1.39-2.15.19-.67.94-1.42,1.6-1.62.4-.12,1.63.95,1.56,1.14-.3.81-.95,1.48-1.78,2.63Z"/>
      <path d="M513.68,307.86c-1.05.88-1.72,1.56-2.52,1.99-.13.07-.86-.99-1.31-1.53.69-.56,1.32-1.25,2.11-1.6.27-.12.92.59,1.72,1.13Z"/>
      <path d="M627.78,250.96c-1.34.88-2.68,1.76-4.02,2.63.35-2.2.89-4.1,3.4-3.58.21.31.41.63.62.94Z"/>
      <path d="M465.74,359.85c.45-1.31.89-2.63,1.34-3.94.46.22,1.35.54,1.32.66-.27,1.3-.68,2.58-1.06,3.86-.53-.19-1.07-.38-1.6-.58Z"/>
      <path d="M755.56,285.46q3.09.32,5.81,4.78c-.26-1.23-.39-1.8-.5-2.38-.13-.66-.24-1.33-.46-2.56.8,1.13,1.3,1.83,1.76,2.48.55-2.14.58-4.61,1.77-6.23,1.18-1.61,3.42-3.04,5.38-3.35,4.89-.77,7.45,1.74,10.38,8.6-.22-1.54-.43-3.08-.65-4.62.16-.06.33-.13.49-.19.39.93.78,1.86,1.35,3.21v-2.47c1.71,1.57,3.11,2.86,4.11,3.77-1.2,1.01-2.26,2.25-3.6,2.97-4.39,2.34-8.83,5.1-14.08,3.86-2.5-.59-5.44.19-7.51-2.15-1.55-1.76-3.27-3.35-4.92-5.02.23-.24.46-.47.69-.71ZM773.86,282.56c-4.81-.62-5.51-.35-5.61,2.15q2.98-1.01,6.97.87c-.38-1.09-.67-1.96-.97-2.83.21-.06.41-.12.62-.17-.03-.09-.03-.26-.08-.27-1.87-.54-3.76-1.54-5.62-1.48-2.35.08-3.77,2.02-4.14,4.27-.33,2.02-.68,4.28,1.94,5.58-1.78-3.57-1.72-6.3.32-7.97,2.09-1.72,4.35-2.03,6.59-.15ZM767.11,288.96c.8.96,1.45,2.46,2.44,2.74,1.26.35,2.89-.06,4.18-.58,1.67-.67,2.23-2,.91-3.61-2.71,2.76-3.96,2.96-7.53,1.45Z"/>
      <path d="M739.76,277.67c-7.23,11.56-13.91,22.88-4.22,35.9-3.36-1.38-5.94-6.21-6.02-12.27-.1-7.25,2.77-13.5,6.82-19.29,1.05-1.51,2.28-2.9,3.42-4.34Z"/>
      <path d="M776.29,302.46c-3.43,2.6-6.86,5.19-10.29,7.79-.2-.26-.4-.52-.59-.79,3.4-2.63,6.81-5.26,10.21-7.89.22.3.45.59.67.89Z"/>
      <path d="M727.36,285.46c1.39,1.55,2.25,3.02.44,4.53-.43.36-1.97.24-2.11-.06-.81-1.76-.47-3.33,1.67-4.47Z"/>
      <path d="M720.16,284.15c-1.46,1.04-2.37,1.84-3.42,2.32-.22.1-1.5-1.39-1.42-1.5.68-.92,1.48-1.83,2.44-2.39.28-.17,1.22.78,2.4,1.58Z"/>
      <path d="M758.24,282.32c-.95-.34-2.09-.67-3.14-1.16-.71-.33-1.31-.89-1.95-1.35.43-.45.88-1.28,1.29-1.26.81.03,1.84.33,2.34.9.71.8,1.02,1.95,1.47,2.87Z"/>
      <path d="M733.78,277.72c.7,1.01,1.56,1.89,1.42,2.1-.59.87-1.48,1.54-2.25,2.29-.49-.6-1.5-1.41-1.36-1.77.33-.86,1.21-1.51,2.2-2.61Z"/>
      <path d="M723.01,277.93c1.11.35,2.21.7,3.32,1.05-.39.78-.79,1.56-1.18,2.34l-2.9-1.76c.26-.55.51-1.09.77-1.64Z"/>
      <path d="M716.24,294.6c-1.35.91-2.12,1.61-3.03,1.9-.24.08-1.38-1.43-1.27-1.59.54-.73,1.31-1.43,2.14-1.75.35-.14,1.07.68,2.15,1.44Z"/>
      <path d="M428.79,363.03c.78-1.63,1.55-3.25,2.32-4.86q.16,5.02-2.32,4.86Z"/>
      <path d="M421.88,341.88c-1.26-.19-2.52-.37-3.78-.56.21-.63.23-1.56.67-1.84,1.66-1.1,2.6-.05,3.37,1.18-.08.41-.17.82-.25,1.23Z"/>
      <path d="M588.82,229.74c-1.44-.38-2.92-.63-4.28-1.19-.55-.23-.82-1.12-1.22-1.71.77-.17,1.73-.72,2.28-.44,1.31.64,2.43,1.67,3.63,2.54-.14.27-.27.54-.41.81Z"/>
      <path d="M436.33,375.19c2.18,1.47,1.96,2.88-.02,4.51-1.97-1.77-1.04-3.16.07-4.56,0,0-.05.05-.05.05Z"/>
      <path d="M591.16,221.96l-2.78,2.29c-.61-.78-1.22-1.56-1.84-2.33.13-.23.27-.45.4-.68,1.4.24,2.81.49,4.21.73,0,0,0,0,0,0Z"/>
      <path d="M447.33,408.41c-1.89.3-3.01-.36-3.03-2.41.62-.41,1.23-.82,2.36-1.57.27,1.62.47,2.8.66,3.98Z"/>
      <path d="M444.21,391.97c-.23.16-.46.33-.7.48-.81.51-1.63,1.01-2.44,1.51-.34-.92-.68-1.83-1.07-2.88,1.64-.36,2.84-.63,4.36-.96-.09.75-.16,1.35-.24,1.95,0,0,.08-.1.08-.1Z"/>
      <g>
        <path d="M480.27,679.34l3.3-3.28c.33-.32.53-.54.61-.66.08-.12.12-.25.12-.39,0-.25-.12-.45-.38-.58-.13-.06-.35-.11-.66-.14v-.18h3.37v.18c-.23.02-.42.06-.57.11-.15.05-.32.15-.5.28-.2.15-.55.46-1.05.93l-2.53,2.43,3.6,4.59.45.57c.33.41.67.72,1.02.95.21.14.4.24.56.3.16.06.36.11.61.14v.18h-5.16v-.18c.39-.03.67-.1.84-.2s.26-.25.26-.44c0-.21-.11-.47-.32-.8-.1-.16-.3-.43-.59-.81-.29-.39-.53-.7-.73-.94l-1.76-2.18-.51.5v2.59c0,.53.03.93.09,1.18.06.26.17.47.33.64.14.15.3.25.49.32.18.07.43.11.73.13v.18h-4.99v-.18c.3-.02.55-.06.73-.13.18-.07.35-.18.49-.32.17-.17.28-.38.34-.63.06-.25.09-.65.09-1.19v-5.76c0-.54-.03-.93-.09-1.19-.06-.25-.17-.47-.34-.63-.14-.15-.3-.26-.49-.33s-.43-.11-.73-.12v-.18h4.99v.18c-.3.02-.54.06-.72.12-.19.07-.35.18-.5.33-.16.17-.27.38-.33.64-.06.26-.09.65-.09,1.18v2.77Z"/>
        <path d="M496.44,674.11v.18c-.3.02-.54.06-.72.12-.19.07-.35.18-.5.33-.2.21-.33.5-.38.87-.03.28-.05.59-.05.95v5.76c0,.43.02.77.06,1.02.04.25.11.45.2.6.14.21.31.36.52.46.21.1.5.16.85.18v.18h-4.99v-.18c.3-.02.55-.06.73-.13.18-.07.35-.18.49-.32.17-.17.28-.38.34-.63.06-.25.09-.65.09-1.19v-5.76c0-.54-.03-.93-.09-1.19-.06-.25-.17-.47-.34-.63-.14-.15-.3-.26-.49-.33s-.43-.11-.73-.12v-.18h4.99Z"/>
        <path d="M502.37,675.53v6.8c0,.54.03.93.09,1.19.06.25.17.47.33.63.15.15.31.26.5.33.18.07.43.11.72.12v.18h-3.6v-.18c.3-.02.54-.06.72-.12.18-.07.35-.18.5-.33.16-.17.27-.38.33-.64.06-.26.09-.65.09-1.18v-5.77c0-.53-.03-.92-.09-1.18-.06-.26-.17-.47-.33-.64-.14-.15-.3-.26-.49-.33-.19-.07-.43-.11-.73-.12v-.18h3.01l6.34,8.09v-5.64c0-.54-.03-.93-.09-1.19-.06-.25-.17-.47-.33-.63-.15-.15-.31-.26-.5-.33-.19-.07-.43-.11-.72-.12v-.18h3.6v.18c-.52,0-.93.15-1.22.45-.16.17-.27.38-.33.64-.06.26-.09.65-.09,1.18v8.22h-.35l-7.36-9.25Z"/>
        <path d="M525.47,674.11l.09,3.4-.18.02c-.36-1.16-.82-2.02-1.38-2.58s-1.24-.85-2.04-.85c-.62,0-1.15.13-1.6.38s-.86.66-1.25,1.23c-.78,1.16-1.17,2.49-1.17,3.98,0,.71.09,1.39.28,2.02s.46,1.19.82,1.68c.7.94,1.55,1.41,2.55,1.41.4,0,.77-.08,1.12-.25.35-.17.64-.4.86-.69.31-.41.46-.89.46-1.45,0-.52-.14-.89-.42-1.12-.28-.23-.74-.34-1.38-.34v-.18h4.98v.18c-.46.04-.78.11-.96.19-.19.09-.32.23-.41.44-.1.23-.15.68-.15,1.37,0,.19.01.48.03.88l.02.18c-.2-.07-.34-.11-.44-.11-.11,0-.26.06-.44.18-.45.31-.98.55-1.58.72-.6.17-1.23.25-1.9.25-.92,0-1.74-.16-2.48-.47-.74-.31-1.33-.76-1.79-1.34-.34-.44-.61-.96-.79-1.56-.19-.6-.28-1.25-.28-1.92,0-.93.17-1.8.5-2.6.33-.8.8-1.46,1.41-1.98.49-.42,1.06-.75,1.71-.98.65-.23,1.33-.34,2.05-.34.42,0,.8.04,1.16.12.36.08.74.21,1.14.38l.46.21c.11.05.22.07.31.07.21,0,.37-.17.48-.51h.2Z"/>
        <path d="M531.3,684.75l.02-3.23h.18c.22.83.48,1.48.78,1.95.57.87,1.28,1.31,2.14,1.31.6,0,1.09-.2,1.48-.6s.59-.91.59-1.52c0-.27-.04-.54-.13-.81s-.2-.51-.35-.71c-.15-.2-.36-.4-.64-.59s-.69-.42-1.25-.71c-.5-.25-.87-.46-1.14-.63-.26-.17-.48-.35-.64-.52-.45-.49-.67-1.09-.67-1.79,0-.43.09-.85.26-1.25.17-.4.42-.75.73-1.03.55-.51,1.21-.77,1.96-.77.24,0,.47.02.68.07.21.05.49.15.84.29.26.1.44.17.53.2s.18.04.25.04c.18,0,.3-.13.37-.4h.18l.05,3.1h-.18c-.14-.5-.26-.87-.36-1.14-.1-.26-.22-.51-.36-.73-.25-.41-.54-.71-.84-.9-.31-.2-.66-.29-1.06-.29-.58,0-1.04.2-1.38.59-.14.16-.25.35-.33.57-.08.22-.12.44-.12.66,0,.87.56,1.57,1.68,2.1l1.1.53c.85.4,1.46.84,1.83,1.33.43.54.64,1.17.64,1.89,0,.48-.1.94-.29,1.37-.27.61-.68,1.08-1.22,1.41-.54.33-1.18.5-1.91.5-.67,0-1.32-.13-1.94-.4-.32-.14-.52-.22-.58-.24s-.13-.03-.21-.03c-.25,0-.42.12-.52.38h-.18Z"/>
        <path d="M549.59,684.78v-.18c.3-.02.55-.06.73-.13.18-.07.35-.18.49-.32.17-.17.28-.38.34-.63.06-.25.09-.65.09-1.19v-5.76c0-.54-.03-.93-.09-1.19-.06-.25-.17-.47-.34-.63-.14-.15-.3-.26-.49-.33s-.43-.11-.73-.12v-.18h5.13c.52,0,.86,0,1.02.02.59.05,1.09.19,1.48.42.34.21.6.48.79.82.18.34.28.72.28,1.14,0,.68-.21,1.24-.63,1.68-.15.16-.32.3-.52.4-.19.11-.47.23-.84.36.5.08.89.17,1.16.27.28.1.53.24.75.41.33.27.59.61.78,1.01.18.4.28.84.28,1.31s-.1.91-.29,1.3c-.19.39-.45.71-.79.95-.31.21-.67.36-1.1.45-.42.08-1.02.12-1.79.12h-5.71ZM552.94,674.36v4.64h.63c.3,0,.6-.02.92-.06.28-.04.5-.09.67-.15.17-.06.32-.14.46-.23.27-.2.47-.45.61-.76.14-.31.21-.65.21-1.03,0-.4-.07-.77-.22-1.13s-.35-.63-.59-.83c-.21-.17-.46-.29-.73-.35s-.69-.09-1.25-.09h-.73ZM552.94,679.24v3.22c0,.39.03.71.08.95s.14.44.27.61c.27.35.72.52,1.37.52.84,0,1.5-.23,1.99-.69.49-.46.73-1.08.73-1.88,0-.45-.08-.87-.23-1.26-.15-.39-.35-.69-.61-.89-.47-.39-1.2-.58-2.2-.58h-1.4Z"/>
        <path d="M571.95,674.11l.13,2.58h-.18c-.07-.43-.18-.79-.34-1.08s-.38-.54-.68-.76c-.25-.18-.53-.31-.87-.39-.33-.08-.78-.11-1.33-.11h-1.79v4.69h.47c.47,0,.83-.03,1.07-.09.24-.06.43-.17.59-.34.15-.15.25-.33.32-.54s.13-.51.18-.91h.18s-.03,4.2-.03,4.2h-.18c-.05-.4-.12-.72-.21-.97-.09-.25-.22-.45-.38-.62-.16-.17-.36-.29-.61-.37s-.57-.12-.95-.12h-.45v1.79c0,.71.02,1.23.05,1.56.04.33.11.6.21.82.18.38.45.65.81.82.36.17.84.26,1.43.26.62,0,1.15-.08,1.57-.24s.77-.41,1.03-.74c.19-.22.34-.48.46-.77s.23-.66.32-1.13h.18s-.1,3.12-.1,3.12h-9.32v-.18c.3-.02.54-.06.72-.12.18-.07.35-.18.5-.33.16-.17.27-.38.33-.64.06-.26.09-.65.09-1.18v-5.76c0-.53-.03-.93-.09-1.18-.06-.26-.17-.47-.33-.64-.14-.15-.3-.26-.49-.33-.19-.07-.43-.11-.73-.12v-.18h8.4Z"/>
        <path d="M587.6,684.78h-5.13v-.18c.46-.04.79-.12.97-.23.32-.2.48-.48.48-.84,0-.21-.07-.5-.22-.86l-.13-.33-.75-1.84h-3.44l-.41,1.08-.2.48c-.23.57-.35,1.02-.35,1.35,0,.19.04.37.13.54s.2.3.35.41c.2.14.46.22.78.25v.18h-3.5v-.18c.28-.02.52-.08.73-.2.21-.12.41-.31.61-.58.17-.21.33-.49.49-.82.16-.34.37-.84.63-1.51l2.86-7.37h.45l3.4,8.21c.25.62.46,1.06.61,1.33.15.27.31.47.49.6.12.09.27.17.43.21.16.05.4.09.73.13v.18ZM582.69,680.17l-1.64-4.05-1.55,4.05h3.19Z"/>
        <path d="M600.63,674.06l.09,3.49h-.18c-.06-.15-.1-.27-.13-.34-.18-.5-.33-.87-.45-1.12-.2-.44-.5-.84-.88-1.2-.29-.28-.59-.48-.91-.6s-.66-.19-1.05-.19c-.59,0-1.1.13-1.53.38-.38.22-.73.55-1.06.96s-.6.9-.8,1.43c-.3.75-.45,1.61-.45,2.58,0,.82.1,1.55.3,2.21s.5,1.21.89,1.65c.72.82,1.67,1.23,2.86,1.23.59,0,1.13-.1,1.6-.31.47-.21.84-.5,1.1-.87.3-.43.52-1.02.66-1.75l.18.03c-.1.82-.32,1.48-.67,1.96-.33.46-.79.82-1.38,1.06s-1.26.37-2.04.37c-.72,0-1.41-.11-2.06-.32-1.05-.34-1.86-.96-2.45-1.86-.59-.9-.88-1.97-.88-3.21,0-.95.17-1.83.52-2.64s.82-1.45,1.44-1.94c.47-.38,1.04-.67,1.7-.89.66-.22,1.32-.33,1.98-.33s1.3.12,2,.36l.64.21c.12.05.23.07.33.07.13,0,.24-.05.32-.16.04-.05.08-.14.13-.26h.19Z"/>
        <path d="M608.28,679.08h5.55v-2.51c0-.54-.03-.93-.09-1.19s-.17-.47-.33-.63c-.15-.15-.31-.26-.5-.33s-.43-.11-.73-.12v-.18h4.99v.18c-.3.02-.54.06-.72.12s-.35.18-.5.33c-.16.17-.27.38-.33.64s-.09.65-.09,1.18v5.76c0,.53.03.92.09,1.18s.17.47.33.64c.15.15.31.25.5.32s.43.11.72.13v.18h-4.99v-.18c.3-.02.55-.06.73-.13s.35-.18.5-.32c.16-.17.27-.38.33-.63s.09-.65.09-1.19v-2.88h-5.55v2.88c0,.53.03.93.09,1.18.06.26.17.47.33.64.14.15.3.25.49.32.18.07.43.11.73.13v.18h-4.99v-.18c.3-.02.55-.06.73-.13.18-.07.35-.18.49-.32.17-.17.28-.38.34-.63.06-.25.09-.65.09-1.19v-5.76c0-.54-.03-.93-.09-1.19-.06-.25-.17-.47-.34-.63-.14-.15-.3-.26-.49-.33s-.43-.11-.73-.12v-.18h4.99v.18c-.3.02-.54.06-.72.12-.19.07-.35.18-.5.33-.16.17-.27.38-.33.64-.06.26-.09.65-.09,1.18v2.51Z"/>
        <path d="M637.95,674.06l.09,3.49h-.18c-.06-.15-.1-.27-.13-.34-.18-.5-.33-.87-.45-1.12-.2-.44-.5-.84-.88-1.2-.29-.28-.59-.48-.91-.6s-.66-.19-1.05-.19c-.59,0-1.1.13-1.53.38-.38.22-.73.55-1.06.96s-.6.9-.8,1.43c-.3.75-.45,1.61-.45,2.58,0,.82.1,1.55.3,2.21s.5,1.21.89,1.65c.72.82,1.67,1.23,2.86,1.23.59,0,1.13-.1,1.6-.31s.84-.5,1.1-.87c.3-.43.52-1.02.66-1.75l.18.03c-.1.82-.32,1.48-.67,1.96-.33.46-.79.82-1.38,1.06s-1.26.37-2.04.37c-.72,0-1.41-.11-2.06-.32-1.05-.34-1.86-.96-2.45-1.86s-.88-1.97-.88-3.21c0-.95.17-1.83.52-2.64s.82-1.45,1.44-1.94c.47-.38,1.04-.67,1.7-.89s1.32-.33,1.98-.33,1.3.12,2,.36l.64.21c.12.05.23.07.33.07.13,0,.24-.05.32-.16.04-.05.08-.14.13-.26h.19Z"/>
        <path d="M653.13,684.78h-5.13v-.18c.46-.04.79-.12.97-.23.32-.2.48-.48.48-.84,0-.21-.07-.5-.22-.86l-.13-.33-.75-1.84h-3.44l-.41,1.08-.2.48c-.23.57-.35,1.02-.35,1.35,0,.19.04.37.13.54s.2.3.35.41c.2.14.46.22.78.25v.18h-3.5v-.18c.28-.02.52-.08.73-.2s.41-.31.61-.58c.17-.21.33-.49.49-.82s.37-.84.63-1.51l2.86-7.37h.45l3.4,8.21c.25.62.46,1.06.61,1.33s.32.47.49.6c.12.09.27.17.43.21s.4.09.73.13v.18ZM648.22,680.17l-1.64-4.05-1.55,4.05h3.19Z"/>
        <path d="M656.55,684.78v-.19c.53,0,.93-.15,1.22-.45.16-.17.27-.38.33-.64s.09-.65.09-1.18v-5.76c0-.55-.03-.96-.1-1.22s-.19-.48-.36-.64c-.15-.14-.31-.23-.49-.3s-.41-.1-.69-.11v-.18h4.99v.18c-.29.02-.52.05-.7.12s-.34.16-.48.3c-.18.17-.3.39-.36.65s-.09.66-.09,1.21v4.51c0,.69.02,1.21.05,1.55s.11.61.21.83c.18.38.45.65.81.82s.84.26,1.43.26,1.14-.08,1.57-.25.77-.42,1.04-.76c.18-.23.33-.5.45-.8s.23-.69.32-1.17l.19.02-.1,3.2h-9.33Z"/>
        <path d="M674.5,674.11v.18c-.3.02-.54.06-.72.12s-.35.18-.5.33c-.2.21-.33.5-.38.87-.03.28-.05.59-.05.95v5.76c0,.43.02.77.06,1.02s.11.45.2.6c.14.21.31.36.52.46s.5.16.85.18v.18h-4.99v-.18c.3-.02.55-.06.73-.13s.35-.18.49-.32c.17-.17.28-.38.34-.63s.09-.65.09-1.19v-5.76c0-.54-.03-.93-.09-1.19s-.17-.47-.34-.63c-.14-.15-.3-.26-.49-.33s-.43-.11-.73-.12v-.18h4.99Z"/>
        <path d="M681.81,679.21v3.12c0,.53.03.92.09,1.18s.17.46.33.64c.14.15.31.26.5.33s.43.11.73.13v.18h-4.99v-.18c.25,0,.49-.04.71-.12s.4-.19.52-.32c.15-.16.25-.38.31-.66s.09-.67.09-1.16v-5.76c0-.33-.02-.68-.05-1.04-.05-.46-.28-.8-.67-1.02-.22-.12-.52-.19-.91-.21v-.18h8.16l.23,2.54-.18.04c-.13-.4-.25-.69-.36-.89-.25-.45-.59-.8-1.03-1.05-.25-.15-.55-.25-.88-.3s-.79-.09-1.38-.09h-1.21v4.61h.31c.92,0,1.59-.21,2.01-.62.18-.18.32-.39.41-.63s.16-.56.19-.95h.18s-.05,4.74-.05,4.74h-.19c-.06-.53-.16-.94-.29-1.23s-.35-.52-.63-.7c-.21-.13-.46-.23-.77-.29s-.7-.09-1.18-.09Z"/>
        <path d="M690.74,679.52c0-.88.19-1.69.56-2.44s.92-1.4,1.64-1.96c.54-.41,1.11-.73,1.73-.95.62-.22,1.25-.33,1.88-.33.8,0,1.58.18,2.33.53.75.35,1.41.85,1.97,1.49.92,1.04,1.38,2.23,1.38,3.56,0,.67-.12,1.31-.36,1.93s-.59,1.19-1.05,1.7c-.56.64-1.23,1.13-2,1.48-.77.35-1.57.52-2.41.52s-1.62-.17-2.38-.51c-.75-.34-1.41-.82-1.95-1.44-.43-.49-.76-1.04-1-1.65-.23-.62-.35-1.26-.35-1.93ZM692.63,679.63c0,1.51.41,2.79,1.23,3.82.37.46.76.8,1.18,1.01s.89.32,1.43.32,1.03-.1,1.44-.31c.41-.21.81-.55,1.18-1.02.82-1.04,1.23-2.33,1.23-3.85,0-.84-.11-1.63-.34-2.38s-.55-1.38-.96-1.9c-.33-.43-.7-.74-1.11-.93s-.89-.29-1.45-.29-1.03.1-1.43.29c-.4.19-.78.51-1.12.94-.41.52-.73,1.15-.95,1.9-.22.75-.34,1.56-.34,2.42Z"/>
        <path d="M709.9,679.56v2.77c0,.53.03.93.09,1.18s.17.47.33.64c.14.15.3.25.49.32s.43.11.73.13v.18h-4.99v-.18c.3-.02.55-.06.73-.13s.35-.18.49-.32c.17-.17.28-.38.34-.63s.09-.65.09-1.19v-5.76c0-.54-.03-.93-.09-1.19s-.17-.47-.34-.63c-.14-.15-.3-.26-.49-.33s-.43-.11-.73-.12v-.18h3.77c.63,0,1.04,0,1.24,0,.81.04,1.44.15,1.9.33.52.21.92.52,1.2.93s.43.89.43,1.44c0,.81-.31,1.46-.92,1.95-.19.15-.39.27-.62.36s-.53.18-.91.27c.31.13.54.27.7.41.12.11.23.25.33.41s.25.45.45.87c.46.95.81,1.65,1.05,2.09s.44.76.6.96c.13.16.26.27.38.34s.29.1.5.12v.18h-2.59c-.13-.29-.21-.47-.25-.55l-.55-1.24c-.33-.75-.66-1.4-.99-1.98-.33-.57-.64-.96-.91-1.16-.14-.1-.29-.18-.45-.22s-.36-.07-.59-.07h-.38ZM709.9,679.39h.3c.65,0,1.11-.04,1.39-.11s.54-.22.79-.45c.55-.52.82-1.17.82-1.94,0-.41-.08-.8-.24-1.16s-.38-.66-.66-.89c-.22-.18-.48-.3-.78-.37s-.73-.11-1.29-.11h-.32v5.03Z"/>
        <path d="M722.07,675.53v6.8c0,.54.03.93.09,1.19s.17.47.33.63c.15.15.31.26.5.33s.43.11.72.12v.18h-3.6v-.18c.3-.02.54-.06.72-.12s.35-.18.5-.33c.16-.17.27-.38.33-.64s.09-.65.09-1.18v-5.77c0-.53-.03-.92-.09-1.18s-.17-.47-.33-.64c-.14-.15-.3-.26-.49-.33s-.43-.11-.73-.12v-.18h3.01l6.34,8.09v-5.64c0-.54-.03-.93-.09-1.19s-.17-.47-.33-.63c-.15-.15-.31-.26-.5-.33s-.43-.11-.72-.12v-.18h3.6v.18c-.52,0-.93.15-1.22.45-.16.17-.27.38-.33.64s-.09.65-.09,1.18v8.22h-.35l-7.36-9.25Z"/>
        <path d="M740.39,674.11v.18c-.3.02-.54.06-.72.12s-.35.18-.5.33c-.2.21-.33.5-.38.87-.03.28-.05.59-.05.95v5.76c0,.43.02.77.06,1.02s.11.45.2.6c.14.21.31.36.52.46s.5.16.85.18v.18h-4.99v-.18c.3-.02.55-.06.73-.13s.35-.18.49-.32c.17-.17.28-.38.34-.63s.09-.65.09-1.19v-5.76c0-.54-.03-.93-.09-1.19s-.17-.47-.34-.63c-.14-.15-.3-.26-.49-.33s-.43-.11-.73-.12v-.18h4.99Z"/>
        <path d="M755.23,684.78h-5.13v-.18c.46-.04.79-.12.97-.23.32-.2.48-.48.48-.84,0-.21-.07-.5-.22-.86l-.13-.33-.75-1.84h-3.44l-.41,1.08-.2.48c-.23.57-.35,1.02-.35,1.35,0,.19.04.37.13.54s.2.3.35.41c.2.14.46.22.78.25v.18h-3.5v-.18c.28-.02.52-.08.73-.2s.41-.31.61-.58c.17-.21.33-.49.49-.82s.37-.84.63-1.51l2.86-7.37h.45l3.4,8.21c.25.62.46,1.06.61,1.33s.32.47.49.6c.12.09.27.17.43.21s.4.09.73.13v.18ZM750.32,680.17l-1.64-4.05-1.55,4.05h3.19Z"/>
      </g>
    </g>
  </g>
</svg>